<mxfile host="app.diagrams.net" modified="2021-10-26T18:29:27.171Z" agent="5.0 (Macintosh; Intel Mac OS X 10_15_7) AppleWebKit/537.36 (KHTML, like Gecko) Chrome/95.0.4638.54 Safari/537.36" etag="Nk1ZSOIJKh6ZZ-IAnz2n" version="15.5.9" type="github">
  <diagram id="R2lEEEUBdFMjLlhIrx00" name="Page-1">
    <mxGraphModel dx="2046" dy="614" grid="1" gridSize="10" guides="1" tooltips="1" connect="1" arrows="1" fold="1" page="1" pageScale="1" pageWidth="1100" pageHeight="850" background="none" math="0" shadow="0" extFonts="Permanent Marker^https://fonts.googleapis.com/css?family=Permanent+Marker">
      <root>
        <mxCell id="0" />
        <mxCell id="1" parent="0" />
        <mxCell id="2ecnJPpk0YEC4RH_o7Lj-169" style="edgeStyle=none;rounded=0;orthogonalLoop=1;jettySize=auto;html=1;entryX=0.5;entryY=0;entryDx=0;entryDy=0;fontColor=#0A0A0A;" parent="1" source="C-vyLk0tnHw3VtMMgP7b-2" target="2ecnJPpk0YEC4RH_o7Lj-14" edge="1">
          <mxGeometry relative="1" as="geometry" />
        </mxCell>
        <mxCell id="C-vyLk0tnHw3VtMMgP7b-2" value="Shipment company" style="shape=table;startSize=30;container=1;collapsible=1;childLayout=tableLayout;fixedRows=1;rowLines=0;fontStyle=1;align=center;resizeLast=1;fillColor=#bac8d3;strokeColor=#23445d;fontFamily=Verdana;fontSize=14;rounded=0;" parent="1" vertex="1">
          <mxGeometry x="120" y="15" width="200" height="185" as="geometry" />
        </mxCell>
        <mxCell id="C-vyLk0tnHw3VtMMgP7b-3" value="" style="shape=partialRectangle;collapsible=0;dropTarget=0;pointerEvents=0;fillColor=none;points=[[0,0.5],[1,0.5]];portConstraint=eastwest;top=0;left=0;right=0;bottom=1;rounded=1;" parent="C-vyLk0tnHw3VtMMgP7b-2" vertex="1">
          <mxGeometry y="30" width="200" height="30" as="geometry" />
        </mxCell>
        <mxCell id="C-vyLk0tnHw3VtMMgP7b-4" value="PK" style="shape=partialRectangle;overflow=hidden;connectable=0;fillColor=none;top=0;left=0;bottom=0;right=0;fontStyle=0;fontFamily=Verdana;fontSize=14;rounded=1;" parent="C-vyLk0tnHw3VtMMgP7b-3" vertex="1">
          <mxGeometry width="30" height="30" as="geometry">
            <mxRectangle width="30" height="30" as="alternateBounds" />
          </mxGeometry>
        </mxCell>
        <mxCell id="C-vyLk0tnHw3VtMMgP7b-5" value="company_id" style="shape=partialRectangle;overflow=hidden;connectable=0;fillColor=none;top=0;left=0;bottom=0;right=0;align=left;spacingLeft=6;fontStyle=5;fontFamily=Verdana;fontSize=14;rounded=1;" parent="C-vyLk0tnHw3VtMMgP7b-3" vertex="1">
          <mxGeometry x="30" width="170" height="30" as="geometry">
            <mxRectangle width="170" height="30" as="alternateBounds" />
          </mxGeometry>
        </mxCell>
        <mxCell id="C-vyLk0tnHw3VtMMgP7b-6" value="" style="shape=partialRectangle;collapsible=0;dropTarget=0;pointerEvents=0;fillColor=none;points=[[0,0.5],[1,0.5]];portConstraint=eastwest;top=0;left=0;right=0;bottom=0;rounded=1;" parent="C-vyLk0tnHw3VtMMgP7b-2" vertex="1">
          <mxGeometry y="60" width="200" height="80" as="geometry" />
        </mxCell>
        <mxCell id="C-vyLk0tnHw3VtMMgP7b-7" value="" style="shape=partialRectangle;overflow=hidden;connectable=0;fillColor=none;top=0;left=0;bottom=0;right=0;fontFamily=Verdana;fontSize=13;rounded=1;" parent="C-vyLk0tnHw3VtMMgP7b-6" vertex="1">
          <mxGeometry width="30" height="80" as="geometry">
            <mxRectangle width="30" height="80" as="alternateBounds" />
          </mxGeometry>
        </mxCell>
        <mxCell id="C-vyLk0tnHw3VtMMgP7b-8" value="name&#xa;address&#xa;email&#xa;phone" style="shape=partialRectangle;overflow=hidden;connectable=0;fillColor=none;top=0;left=0;bottom=0;right=0;align=left;spacingLeft=6;fontFamily=Verdana;fontSize=14;rounded=1;" parent="C-vyLk0tnHw3VtMMgP7b-6" vertex="1">
          <mxGeometry x="30" width="170" height="80" as="geometry">
            <mxRectangle width="170" height="80" as="alternateBounds" />
          </mxGeometry>
        </mxCell>
        <mxCell id="C-vyLk0tnHw3VtMMgP7b-9" value="" style="shape=partialRectangle;collapsible=0;dropTarget=0;pointerEvents=0;fillColor=none;points=[[0,0.5],[1,0.5]];portConstraint=eastwest;top=0;left=0;right=0;bottom=0;rounded=1;" parent="C-vyLk0tnHw3VtMMgP7b-2" vertex="1">
          <mxGeometry y="140" width="200" height="45" as="geometry" />
        </mxCell>
        <mxCell id="C-vyLk0tnHw3VtMMgP7b-10" value="FK" style="shape=partialRectangle;overflow=hidden;connectable=0;fillColor=none;top=0;left=0;bottom=0;right=0;rounded=1;" parent="C-vyLk0tnHw3VtMMgP7b-9" vertex="1">
          <mxGeometry width="30" height="45" as="geometry">
            <mxRectangle width="30" height="45" as="alternateBounds" />
          </mxGeometry>
        </mxCell>
        <mxCell id="C-vyLk0tnHw3VtMMgP7b-11" value="&#xa;order_date&#xa; " style="shape=partialRectangle;overflow=hidden;connectable=0;fillColor=none;top=0;left=0;bottom=0;right=0;align=left;spacingLeft=6;fontFamily=Verdana;fontSize=14;rounded=1;" parent="C-vyLk0tnHw3VtMMgP7b-9" vertex="1">
          <mxGeometry x="30" width="170" height="45" as="geometry">
            <mxRectangle width="170" height="45" as="alternateBounds" />
          </mxGeometry>
        </mxCell>
        <mxCell id="C-vyLk0tnHw3VtMMgP7b-13" value="Delivery" style="shape=table;startSize=30;container=1;collapsible=1;childLayout=tableLayout;fixedRows=1;rowLines=0;fontStyle=1;align=center;resizeLast=1;fillColor=#bac8d3;strokeColor=#23445d;fontFamily=Verdana;fontSize=14;rounded=0;" parent="1" vertex="1">
          <mxGeometry x="60" y="1105" width="180" height="170" as="geometry" />
        </mxCell>
        <mxCell id="C-vyLk0tnHw3VtMMgP7b-14" value="" style="shape=partialRectangle;collapsible=0;dropTarget=0;pointerEvents=0;fillColor=none;points=[[0,0.5],[1,0.5]];portConstraint=eastwest;top=0;left=0;right=0;bottom=1;rounded=1;" parent="C-vyLk0tnHw3VtMMgP7b-13" vertex="1">
          <mxGeometry y="30" width="180" height="30" as="geometry" />
        </mxCell>
        <mxCell id="C-vyLk0tnHw3VtMMgP7b-15" value="" style="shape=partialRectangle;overflow=hidden;connectable=0;fillColor=none;top=0;left=0;bottom=0;right=0;fontStyle=1;fontFamily=Verdana;fontSize=14;rounded=1;" parent="C-vyLk0tnHw3VtMMgP7b-14" vertex="1">
          <mxGeometry width="30" height="30" as="geometry">
            <mxRectangle width="30" height="30" as="alternateBounds" />
          </mxGeometry>
        </mxCell>
        <mxCell id="C-vyLk0tnHw3VtMMgP7b-16" value="shipment_id " style="shape=partialRectangle;overflow=hidden;connectable=0;fillColor=none;top=0;left=0;bottom=0;right=0;align=left;spacingLeft=6;fontStyle=4;fontFamily=Verdana;fontSize=14;rounded=1;" parent="C-vyLk0tnHw3VtMMgP7b-14" vertex="1">
          <mxGeometry x="30" width="150" height="30" as="geometry">
            <mxRectangle width="150" height="30" as="alternateBounds" />
          </mxGeometry>
        </mxCell>
        <mxCell id="C-vyLk0tnHw3VtMMgP7b-17" value="" style="shape=partialRectangle;collapsible=0;dropTarget=0;pointerEvents=0;fillColor=none;points=[[0,0.5],[1,0.5]];portConstraint=eastwest;top=0;left=0;right=0;bottom=0;rounded=1;" parent="C-vyLk0tnHw3VtMMgP7b-13" vertex="1">
          <mxGeometry y="60" width="180" height="30" as="geometry" />
        </mxCell>
        <mxCell id="C-vyLk0tnHw3VtMMgP7b-18" value="FK" style="shape=partialRectangle;overflow=hidden;connectable=0;fillColor=none;top=0;left=0;bottom=0;right=0;rounded=1;" parent="C-vyLk0tnHw3VtMMgP7b-17" vertex="1">
          <mxGeometry width="30" height="30" as="geometry">
            <mxRectangle width="30" height="30" as="alternateBounds" />
          </mxGeometry>
        </mxCell>
        <mxCell id="C-vyLk0tnHw3VtMMgP7b-19" value="order_id " style="shape=partialRectangle;overflow=hidden;connectable=0;fillColor=none;top=0;left=0;bottom=0;right=0;align=left;spacingLeft=6;fontFamily=Verdana;fontSize=13;rounded=1;" parent="C-vyLk0tnHw3VtMMgP7b-17" vertex="1">
          <mxGeometry x="30" width="150" height="30" as="geometry">
            <mxRectangle width="150" height="30" as="alternateBounds" />
          </mxGeometry>
        </mxCell>
        <mxCell id="C-vyLk0tnHw3VtMMgP7b-20" value="" style="shape=partialRectangle;collapsible=0;dropTarget=0;pointerEvents=0;fillColor=none;points=[[0,0.5],[1,0.5]];portConstraint=eastwest;top=0;left=0;right=0;bottom=0;rounded=1;" parent="C-vyLk0tnHw3VtMMgP7b-13" vertex="1">
          <mxGeometry y="90" width="180" height="70" as="geometry" />
        </mxCell>
        <mxCell id="C-vyLk0tnHw3VtMMgP7b-21" value="FK" style="shape=partialRectangle;overflow=hidden;connectable=0;fillColor=none;top=0;left=0;bottom=0;right=0;rounded=1;" parent="C-vyLk0tnHw3VtMMgP7b-20" vertex="1">
          <mxGeometry width="30" height="70" as="geometry">
            <mxRectangle width="30" height="70" as="alternateBounds" />
          </mxGeometry>
        </mxCell>
        <mxCell id="C-vyLk0tnHw3VtMMgP7b-22" value="shipment_date &#xa;address&#xa;courier name&#xa;&#xa;" style="shape=partialRectangle;overflow=hidden;connectable=0;fillColor=none;top=0;left=0;bottom=0;right=0;align=left;spacingLeft=6;fontFamily=Verdana;fontSize=14;rounded=1;" parent="C-vyLk0tnHw3VtMMgP7b-20" vertex="1">
          <mxGeometry x="30" width="150" height="70" as="geometry">
            <mxRectangle width="150" height="70" as="alternateBounds" />
          </mxGeometry>
        </mxCell>
        <mxCell id="2ecnJPpk0YEC4RH_o7Lj-142" style="edgeStyle=orthogonalEdgeStyle;rounded=0;orthogonalLoop=1;jettySize=auto;html=1;fontColor=#0A0A0A;" parent="1" source="C-vyLk0tnHw3VtMMgP7b-23" target="2ecnJPpk0YEC4RH_o7Lj-114" edge="1">
          <mxGeometry relative="1" as="geometry" />
        </mxCell>
        <mxCell id="C-vyLk0tnHw3VtMMgP7b-23" value="Customers" style="shape=table;startSize=30;container=1;collapsible=1;childLayout=tableLayout;fixedRows=1;rowLines=0;fontStyle=1;align=center;resizeLast=1;fontFamily=Verdana;fontSize=14;fillColor=#bac8d3;strokeColor=#23445d;rounded=0;sketch=0;" parent="1" vertex="1">
          <mxGeometry x="800" y="35" width="210" height="170" as="geometry" />
        </mxCell>
        <mxCell id="C-vyLk0tnHw3VtMMgP7b-24" value="" style="shape=partialRectangle;collapsible=0;dropTarget=0;pointerEvents=0;fillColor=none;points=[[0,0.5],[1,0.5]];portConstraint=eastwest;top=0;left=0;right=0;bottom=1;rounded=1;" parent="C-vyLk0tnHw3VtMMgP7b-23" vertex="1">
          <mxGeometry y="30" width="210" height="30" as="geometry" />
        </mxCell>
        <mxCell id="C-vyLk0tnHw3VtMMgP7b-25" value="PK" style="shape=partialRectangle;overflow=hidden;connectable=0;fillColor=none;top=0;left=0;bottom=0;right=0;fontStyle=0;rounded=1;" parent="C-vyLk0tnHw3VtMMgP7b-24" vertex="1">
          <mxGeometry width="30" height="30" as="geometry">
            <mxRectangle width="30" height="30" as="alternateBounds" />
          </mxGeometry>
        </mxCell>
        <mxCell id="C-vyLk0tnHw3VtMMgP7b-26" value="customer_id " style="shape=partialRectangle;overflow=hidden;connectable=0;fillColor=none;top=0;left=0;bottom=0;right=0;align=left;spacingLeft=6;fontStyle=5;fontFamily=Verdana;fontSize=14;rounded=1;" parent="C-vyLk0tnHw3VtMMgP7b-24" vertex="1">
          <mxGeometry x="30" width="180" height="30" as="geometry">
            <mxRectangle width="180" height="30" as="alternateBounds" />
          </mxGeometry>
        </mxCell>
        <mxCell id="C-vyLk0tnHw3VtMMgP7b-27" value="" style="shape=partialRectangle;collapsible=0;dropTarget=0;pointerEvents=0;fillColor=none;points=[[0,0.5],[1,0.5]];portConstraint=eastwest;top=0;left=0;right=0;bottom=0;rounded=1;" parent="C-vyLk0tnHw3VtMMgP7b-23" vertex="1">
          <mxGeometry y="60" width="210" height="110" as="geometry" />
        </mxCell>
        <mxCell id="C-vyLk0tnHw3VtMMgP7b-28" value="" style="shape=partialRectangle;overflow=hidden;connectable=0;fillColor=none;top=0;left=0;bottom=0;right=0;rounded=1;" parent="C-vyLk0tnHw3VtMMgP7b-27" vertex="1">
          <mxGeometry width="30" height="110" as="geometry">
            <mxRectangle width="30" height="110" as="alternateBounds" />
          </mxGeometry>
        </mxCell>
        <mxCell id="C-vyLk0tnHw3VtMMgP7b-29" value="name &#xa;address&#xa;email&#xa;date of birth&#xa;card_id&#xa;phone number" style="shape=partialRectangle;overflow=hidden;connectable=0;fillColor=none;top=0;left=0;bottom=0;right=0;align=left;spacingLeft=6;fontFamily=Verdana;fontSize=14;rounded=1;" parent="C-vyLk0tnHw3VtMMgP7b-27" vertex="1">
          <mxGeometry x="30" width="180" height="110" as="geometry">
            <mxRectangle width="180" height="110" as="alternateBounds" />
          </mxGeometry>
        </mxCell>
        <mxCell id="_zSrM_tOOz1Z_hss7G8G-1" value="Packages" style="shape=table;startSize=30;container=1;collapsible=0;childLayout=tableLayout;fixedRows=1;rowLines=0;fontStyle=1;align=center;pointerEvents=1;fontFamily=Verdana;fontSize=14;fillColor=#bac8d3;strokeColor=#23445d;rounded=0;" parent="1" vertex="1">
          <mxGeometry x="405" y="660" width="190" height="170" as="geometry" />
        </mxCell>
        <mxCell id="_zSrM_tOOz1Z_hss7G8G-2" value="" style="shape=partialRectangle;html=1;whiteSpace=wrap;collapsible=0;dropTarget=0;pointerEvents=1;fillColor=none;top=0;left=0;bottom=1;right=0;points=[[0,0.5],[1,0.5]];portConstraint=eastwest;rounded=1;" parent="_zSrM_tOOz1Z_hss7G8G-1" vertex="1">
          <mxGeometry y="30" width="190" height="30" as="geometry" />
        </mxCell>
        <mxCell id="_zSrM_tOOz1Z_hss7G8G-3" value="PK" style="shape=partialRectangle;html=1;whiteSpace=wrap;connectable=0;fillColor=none;top=0;left=0;bottom=0;right=0;overflow=hidden;pointerEvents=1;rounded=1;" parent="_zSrM_tOOz1Z_hss7G8G-2" vertex="1">
          <mxGeometry width="40" height="30" as="geometry">
            <mxRectangle width="40" height="30" as="alternateBounds" />
          </mxGeometry>
        </mxCell>
        <mxCell id="_zSrM_tOOz1Z_hss7G8G-4" value="&lt;font face=&quot;Verdana&quot;&gt;&lt;span style=&quot;font-size: 14px&quot;&gt;&lt;u&gt;order number&lt;/u&gt;&lt;/span&gt;&lt;/font&gt;" style="shape=partialRectangle;html=1;whiteSpace=wrap;connectable=0;fillColor=none;top=0;left=0;bottom=0;right=0;align=left;spacingLeft=6;overflow=hidden;pointerEvents=1;rounded=1;" parent="_zSrM_tOOz1Z_hss7G8G-2" vertex="1">
          <mxGeometry x="40" width="150" height="30" as="geometry">
            <mxRectangle width="150" height="30" as="alternateBounds" />
          </mxGeometry>
        </mxCell>
        <mxCell id="_zSrM_tOOz1Z_hss7G8G-5" value="" style="shape=partialRectangle;html=1;whiteSpace=wrap;collapsible=0;dropTarget=0;pointerEvents=1;fillColor=none;top=0;left=0;bottom=0;right=0;points=[[0,0.5],[1,0.5]];portConstraint=eastwest;rounded=1;" parent="_zSrM_tOOz1Z_hss7G8G-1" vertex="1">
          <mxGeometry y="60" width="190" height="30" as="geometry" />
        </mxCell>
        <mxCell id="_zSrM_tOOz1Z_hss7G8G-6" value="FK" style="shape=partialRectangle;html=1;whiteSpace=wrap;connectable=0;fillColor=none;top=0;left=0;bottom=0;right=0;overflow=hidden;pointerEvents=1;rounded=1;" parent="_zSrM_tOOz1Z_hss7G8G-5" vertex="1">
          <mxGeometry width="40" height="30" as="geometry">
            <mxRectangle width="40" height="30" as="alternateBounds" />
          </mxGeometry>
        </mxCell>
        <mxCell id="_zSrM_tOOz1Z_hss7G8G-7" value="&lt;font face=&quot;Verdana&quot;&gt;&lt;span style=&quot;font-size: 14px&quot;&gt;delivery date&lt;/span&gt;&lt;/font&gt;" style="shape=partialRectangle;html=1;whiteSpace=wrap;connectable=0;fillColor=none;top=0;left=0;bottom=0;right=0;align=left;spacingLeft=6;overflow=hidden;pointerEvents=1;rounded=1;" parent="_zSrM_tOOz1Z_hss7G8G-5" vertex="1">
          <mxGeometry x="40" width="150" height="30" as="geometry">
            <mxRectangle width="150" height="30" as="alternateBounds" />
          </mxGeometry>
        </mxCell>
        <mxCell id="_zSrM_tOOz1Z_hss7G8G-8" value="" style="shape=partialRectangle;html=1;whiteSpace=wrap;collapsible=0;dropTarget=0;pointerEvents=1;fillColor=none;top=0;left=0;bottom=0;right=0;points=[[0,0.5],[1,0.5]];portConstraint=eastwest;rounded=1;" parent="_zSrM_tOOz1Z_hss7G8G-1" vertex="1">
          <mxGeometry y="90" width="190" height="80" as="geometry" />
        </mxCell>
        <mxCell id="_zSrM_tOOz1Z_hss7G8G-9" value="FK" style="shape=partialRectangle;html=1;whiteSpace=wrap;connectable=0;fillColor=none;top=0;left=0;bottom=0;right=0;overflow=hidden;pointerEvents=1;rounded=1;" parent="_zSrM_tOOz1Z_hss7G8G-8" vertex="1">
          <mxGeometry width="40" height="80" as="geometry">
            <mxRectangle width="40" height="80" as="alternateBounds" />
          </mxGeometry>
        </mxCell>
        <mxCell id="_zSrM_tOOz1Z_hss7G8G-10" value="&lt;font face=&quot;Verdana&quot; style=&quot;font-size: 14px&quot;&gt;id&lt;br&gt;weight&lt;br&gt;size&lt;br&gt;type&lt;br&gt;&lt;/font&gt;" style="shape=partialRectangle;html=1;whiteSpace=wrap;connectable=0;fillColor=none;top=0;left=0;bottom=0;right=0;align=left;spacingLeft=6;overflow=hidden;pointerEvents=1;rounded=1;" parent="_zSrM_tOOz1Z_hss7G8G-8" vertex="1">
          <mxGeometry x="40" width="150" height="80" as="geometry">
            <mxRectangle width="150" height="80" as="alternateBounds" />
          </mxGeometry>
        </mxCell>
        <mxCell id="_zSrM_tOOz1Z_hss7G8G-26" value="&lt;br&gt;" style="text;html=1;align=center;verticalAlign=middle;resizable=0;points=[];autosize=1;strokeColor=none;fillColor=none;fontSize=14;fontFamily=Verdana;rounded=1;" parent="1" vertex="1">
          <mxGeometry x="355" y="565" width="20" height="20" as="geometry" />
        </mxCell>
        <mxCell id="_zSrM_tOOz1Z_hss7G8G-28" value="Courier" style="shape=table;startSize=25;container=1;collapsible=0;childLayout=tableLayout;fixedRows=1;rowLines=0;fontStyle=1;align=center;pointerEvents=1;fontFamily=Verdana;fontSize=14;fillColor=#bac8d3;strokeColor=#23445d;rounded=0;" parent="1" vertex="1">
          <mxGeometry x="730" y="1010" width="150" height="160" as="geometry" />
        </mxCell>
        <mxCell id="_zSrM_tOOz1Z_hss7G8G-29" value="" style="shape=partialRectangle;html=1;whiteSpace=wrap;collapsible=0;dropTarget=0;pointerEvents=1;fillColor=none;top=0;left=0;bottom=1;right=0;points=[[0,0.5],[1,0.5]];portConstraint=eastwest;fontFamily=Verdana;fontSize=14;align=left;rounded=1;" parent="_zSrM_tOOz1Z_hss7G8G-28" vertex="1">
          <mxGeometry y="25" width="150" height="40" as="geometry" />
        </mxCell>
        <mxCell id="_zSrM_tOOz1Z_hss7G8G-30" value="PK" style="shape=partialRectangle;html=1;whiteSpace=wrap;connectable=0;fillColor=none;top=0;left=0;bottom=0;right=0;overflow=hidden;pointerEvents=1;fontFamily=Verdana;fontSize=14;align=left;rounded=1;" parent="_zSrM_tOOz1Z_hss7G8G-29" vertex="1">
          <mxGeometry width="33" height="40" as="geometry">
            <mxRectangle width="33" height="40" as="alternateBounds" />
          </mxGeometry>
        </mxCell>
        <mxCell id="_zSrM_tOOz1Z_hss7G8G-31" value="&lt;u&gt;courier_id&lt;/u&gt;" style="shape=partialRectangle;html=1;whiteSpace=wrap;connectable=0;fillColor=none;top=0;left=0;bottom=0;right=0;align=left;spacingLeft=6;overflow=hidden;pointerEvents=1;fontFamily=Verdana;fontSize=14;rounded=1;" parent="_zSrM_tOOz1Z_hss7G8G-29" vertex="1">
          <mxGeometry x="33" width="117" height="40" as="geometry">
            <mxRectangle width="117" height="40" as="alternateBounds" />
          </mxGeometry>
        </mxCell>
        <mxCell id="_zSrM_tOOz1Z_hss7G8G-32" value="" style="shape=partialRectangle;html=1;whiteSpace=wrap;collapsible=0;dropTarget=0;pointerEvents=1;fillColor=none;top=0;left=0;bottom=0;right=0;points=[[0,0.5],[1,0.5]];portConstraint=eastwest;fontFamily=Verdana;fontSize=14;align=left;rounded=1;" parent="_zSrM_tOOz1Z_hss7G8G-28" vertex="1">
          <mxGeometry y="65" width="150" height="30" as="geometry" />
        </mxCell>
        <mxCell id="_zSrM_tOOz1Z_hss7G8G-33" value="" style="shape=partialRectangle;html=1;whiteSpace=wrap;connectable=0;fillColor=none;top=0;left=0;bottom=0;right=0;overflow=hidden;pointerEvents=1;fontFamily=Verdana;fontSize=14;align=left;rounded=1;" parent="_zSrM_tOOz1Z_hss7G8G-32" vertex="1">
          <mxGeometry width="33" height="30" as="geometry">
            <mxRectangle width="33" height="30" as="alternateBounds" />
          </mxGeometry>
        </mxCell>
        <mxCell id="_zSrM_tOOz1Z_hss7G8G-34" value="name" style="shape=partialRectangle;html=1;whiteSpace=wrap;connectable=0;fillColor=none;top=0;left=0;bottom=0;right=0;align=left;spacingLeft=6;overflow=hidden;pointerEvents=1;fontFamily=Verdana;fontSize=14;rounded=1;" parent="_zSrM_tOOz1Z_hss7G8G-32" vertex="1">
          <mxGeometry x="33" width="117" height="30" as="geometry">
            <mxRectangle width="117" height="30" as="alternateBounds" />
          </mxGeometry>
        </mxCell>
        <mxCell id="_zSrM_tOOz1Z_hss7G8G-35" value="" style="shape=partialRectangle;html=1;whiteSpace=wrap;collapsible=0;dropTarget=0;pointerEvents=1;fillColor=none;top=0;left=0;bottom=0;right=0;points=[[0,0.5],[1,0.5]];portConstraint=eastwest;fontFamily=Verdana;fontSize=14;align=left;rounded=1;" parent="_zSrM_tOOz1Z_hss7G8G-28" vertex="1">
          <mxGeometry y="95" width="150" height="30" as="geometry" />
        </mxCell>
        <mxCell id="_zSrM_tOOz1Z_hss7G8G-36" value="" style="shape=partialRectangle;html=1;whiteSpace=wrap;connectable=0;fillColor=none;top=0;left=0;bottom=0;right=0;overflow=hidden;pointerEvents=1;fontFamily=Verdana;fontSize=14;align=left;rounded=1;" parent="_zSrM_tOOz1Z_hss7G8G-35" vertex="1">
          <mxGeometry width="33" height="30" as="geometry">
            <mxRectangle width="33" height="30" as="alternateBounds" />
          </mxGeometry>
        </mxCell>
        <mxCell id="_zSrM_tOOz1Z_hss7G8G-37" value="phone number" style="shape=partialRectangle;html=1;whiteSpace=wrap;connectable=0;fillColor=none;top=0;left=0;bottom=0;right=0;align=left;spacingLeft=6;overflow=hidden;pointerEvents=1;fontFamily=Verdana;fontSize=14;rounded=1;" parent="_zSrM_tOOz1Z_hss7G8G-35" vertex="1">
          <mxGeometry x="33" width="117" height="30" as="geometry">
            <mxRectangle width="117" height="30" as="alternateBounds" />
          </mxGeometry>
        </mxCell>
        <mxCell id="_zSrM_tOOz1Z_hss7G8G-65" value="Plane delivery" style="swimlane;fontStyle=1;childLayout=stackLayout;horizontal=1;startSize=26;horizontalStack=0;resizeParent=1;resizeParentMax=0;resizeLast=0;collapsible=1;marginBottom=0;align=center;fontSize=14;fontFamily=Verdana;fillColor=#bac8d3;strokeColor=#23445d;rounded=0;swimlaneLine=1;" parent="1" vertex="1">
          <mxGeometry x="420" y="1457" width="160" height="110" as="geometry" />
        </mxCell>
        <mxCell id="_zSrM_tOOz1Z_hss7G8G-66" value="Id" style="text;strokeColor=none;fillColor=none;spacingLeft=4;spacingRight=4;overflow=hidden;rotatable=0;points=[[0,0.5],[1,0.5]];portConstraint=eastwest;fontSize=14;fontFamily=Verdana;align=left;rounded=1;fontStyle=4" parent="_zSrM_tOOz1Z_hss7G8G-65" vertex="1">
          <mxGeometry y="26" width="160" height="24" as="geometry" />
        </mxCell>
        <mxCell id="_zSrM_tOOz1Z_hss7G8G-67" value="name&#xa;&#xa;current location" style="text;strokeColor=none;fillColor=none;spacingLeft=4;spacingRight=4;overflow=hidden;rotatable=0;points=[[0,0.5],[1,0.5]];portConstraint=eastwest;fontSize=14;fontFamily=Verdana;align=left;rounded=1;" parent="_zSrM_tOOz1Z_hss7G8G-65" vertex="1">
          <mxGeometry y="50" width="160" height="60" as="geometry" />
        </mxCell>
        <mxCell id="_zSrM_tOOz1Z_hss7G8G-69" value="Truck" style="swimlane;fontStyle=1;childLayout=stackLayout;horizontal=1;startSize=26;horizontalStack=0;resizeParent=1;resizeParentMax=0;resizeLast=0;collapsible=1;marginBottom=0;align=center;fontSize=14;fontFamily=Verdana;fillColor=#bac8d3;strokeColor=#23445d;rounded=0;" parent="1" vertex="1">
          <mxGeometry x="215" y="1454" width="160" height="116" as="geometry" />
        </mxCell>
        <mxCell id="_zSrM_tOOz1Z_hss7G8G-72" value="Id" style="text;strokeColor=none;fillColor=none;spacingLeft=4;spacingRight=4;overflow=hidden;rotatable=0;points=[[0,0.5],[1,0.5]];portConstraint=eastwest;fontSize=14;fontFamily=Verdana;align=left;rounded=1;fontStyle=4" parent="_zSrM_tOOz1Z_hss7G8G-69" vertex="1">
          <mxGeometry y="26" width="160" height="30" as="geometry" />
        </mxCell>
        <mxCell id="_zSrM_tOOz1Z_hss7G8G-71" value="name" style="text;strokeColor=none;fillColor=none;spacingLeft=4;spacingRight=4;overflow=hidden;rotatable=0;points=[[0,0.5],[1,0.5]];portConstraint=eastwest;fontSize=14;fontFamily=Verdana;align=left;rounded=1;" parent="_zSrM_tOOz1Z_hss7G8G-69" vertex="1">
          <mxGeometry y="56" width="160" height="30" as="geometry" />
        </mxCell>
        <mxCell id="_zSrM_tOOz1Z_hss7G8G-70" value="current location" style="text;strokeColor=none;fillColor=none;spacingLeft=4;spacingRight=4;overflow=hidden;rotatable=0;points=[[0,0.5],[1,0.5]];portConstraint=eastwest;fontSize=14;fontFamily=Verdana;align=left;rounded=1;" parent="_zSrM_tOOz1Z_hss7G8G-69" vertex="1">
          <mxGeometry y="86" width="160" height="30" as="geometry" />
        </mxCell>
        <mxCell id="_zSrM_tOOz1Z_hss7G8G-73" value="Warehouse" style="swimlane;fontStyle=1;childLayout=stackLayout;horizontal=1;startSize=26;horizontalStack=0;resizeParent=1;resizeParentMax=0;resizeLast=0;collapsible=1;marginBottom=0;align=center;fontSize=14;fontFamily=Verdana;fillColor=#bac8d3;strokeColor=#23445d;rounded=0;" parent="1" vertex="1">
          <mxGeometry x="30" y="1454" width="160" height="116" as="geometry" />
        </mxCell>
        <mxCell id="_zSrM_tOOz1Z_hss7G8G-74" value="Id" style="text;strokeColor=none;fillColor=none;spacingLeft=4;spacingRight=4;overflow=hidden;rotatable=0;points=[[0,0.5],[1,0.5]];portConstraint=eastwest;fontSize=14;fontFamily=Verdana;align=left;rounded=1;fontStyle=4" parent="_zSrM_tOOz1Z_hss7G8G-73" vertex="1">
          <mxGeometry y="26" width="160" height="30" as="geometry" />
        </mxCell>
        <mxCell id="_zSrM_tOOz1Z_hss7G8G-75" value="name" style="text;strokeColor=none;fillColor=none;spacingLeft=4;spacingRight=4;overflow=hidden;rotatable=0;points=[[0,0.5],[1,0.5]];portConstraint=eastwest;fontSize=14;fontFamily=Verdana;align=left;rounded=1;" parent="_zSrM_tOOz1Z_hss7G8G-73" vertex="1">
          <mxGeometry y="56" width="160" height="30" as="geometry" />
        </mxCell>
        <mxCell id="_zSrM_tOOz1Z_hss7G8G-76" value="current location" style="text;strokeColor=none;fillColor=none;spacingLeft=4;spacingRight=4;overflow=hidden;rotatable=0;points=[[0,0.5],[1,0.5]];portConstraint=eastwest;fontSize=14;fontFamily=Verdana;align=left;rounded=1;" parent="_zSrM_tOOz1Z_hss7G8G-73" vertex="1">
          <mxGeometry y="86" width="160" height="30" as="geometry" />
        </mxCell>
        <mxCell id="8MdKcx37M3TQIIV3EagU-9" value="Delivery status" style="shape=table;startSize=40;container=1;collapsible=1;childLayout=tableLayout;fixedRows=1;rowLines=0;fontStyle=1;align=center;resizeLast=1;rounded=0;sketch=0;fontSize=14;fillColor=#bac8d3;strokeColor=#23445d;" parent="1" vertex="1">
          <mxGeometry x="440" y="1090" width="190" height="200" as="geometry" />
        </mxCell>
        <mxCell id="8MdKcx37M3TQIIV3EagU-10" value="" style="shape=partialRectangle;collapsible=0;dropTarget=0;pointerEvents=0;fillColor=none;top=0;left=0;bottom=1;right=0;points=[[0,0.5],[1,0.5]];portConstraint=eastwest;rounded=0;sketch=0;fontSize=14;" parent="8MdKcx37M3TQIIV3EagU-9" vertex="1">
          <mxGeometry y="40" width="190" height="40" as="geometry" />
        </mxCell>
        <mxCell id="8MdKcx37M3TQIIV3EagU-11" value="PK" style="shape=partialRectangle;connectable=0;fillColor=none;top=0;left=0;bottom=0;right=0;fontStyle=1;overflow=hidden;rounded=0;sketch=0;fontSize=14;" parent="8MdKcx37M3TQIIV3EagU-10" vertex="1">
          <mxGeometry width="30" height="40" as="geometry">
            <mxRectangle width="30" height="40" as="alternateBounds" />
          </mxGeometry>
        </mxCell>
        <mxCell id="8MdKcx37M3TQIIV3EagU-12" value="status_id" style="shape=partialRectangle;connectable=0;fillColor=none;top=0;left=0;bottom=0;right=0;align=left;spacingLeft=6;fontStyle=5;overflow=hidden;rounded=0;sketch=0;fontSize=14;" parent="8MdKcx37M3TQIIV3EagU-10" vertex="1">
          <mxGeometry x="30" width="160" height="40" as="geometry">
            <mxRectangle width="160" height="40" as="alternateBounds" />
          </mxGeometry>
        </mxCell>
        <mxCell id="8MdKcx37M3TQIIV3EagU-13" value="" style="shape=partialRectangle;collapsible=0;dropTarget=0;pointerEvents=0;fillColor=none;top=0;left=0;bottom=0;right=0;points=[[0,0.5],[1,0.5]];portConstraint=eastwest;rounded=0;sketch=0;fontSize=14;" parent="8MdKcx37M3TQIIV3EagU-9" vertex="1">
          <mxGeometry y="80" width="190" height="30" as="geometry" />
        </mxCell>
        <mxCell id="8MdKcx37M3TQIIV3EagU-14" value="" style="shape=partialRectangle;connectable=0;fillColor=none;top=0;left=0;bottom=0;right=0;editable=1;overflow=hidden;rounded=0;sketch=0;fontSize=14;" parent="8MdKcx37M3TQIIV3EagU-13" vertex="1">
          <mxGeometry width="30" height="30" as="geometry">
            <mxRectangle width="30" height="30" as="alternateBounds" />
          </mxGeometry>
        </mxCell>
        <mxCell id="8MdKcx37M3TQIIV3EagU-15" value="order_id" style="shape=partialRectangle;connectable=0;fillColor=none;top=0;left=0;bottom=0;right=0;align=left;spacingLeft=6;overflow=hidden;rounded=0;sketch=0;fontSize=14;" parent="8MdKcx37M3TQIIV3EagU-13" vertex="1">
          <mxGeometry x="30" width="160" height="30" as="geometry">
            <mxRectangle width="160" height="30" as="alternateBounds" />
          </mxGeometry>
        </mxCell>
        <mxCell id="8MdKcx37M3TQIIV3EagU-16" value="" style="shape=partialRectangle;collapsible=0;dropTarget=0;pointerEvents=0;fillColor=none;top=0;left=0;bottom=0;right=0;points=[[0,0.5],[1,0.5]];portConstraint=eastwest;rounded=0;sketch=0;fontSize=14;" parent="8MdKcx37M3TQIIV3EagU-9" vertex="1">
          <mxGeometry y="110" width="190" height="30" as="geometry" />
        </mxCell>
        <mxCell id="8MdKcx37M3TQIIV3EagU-17" value="" style="shape=partialRectangle;connectable=0;fillColor=none;top=0;left=0;bottom=0;right=0;editable=1;overflow=hidden;rounded=0;sketch=0;fontSize=14;" parent="8MdKcx37M3TQIIV3EagU-16" vertex="1">
          <mxGeometry width="30" height="30" as="geometry">
            <mxRectangle width="30" height="30" as="alternateBounds" />
          </mxGeometry>
        </mxCell>
        <mxCell id="8MdKcx37M3TQIIV3EagU-18" value="current location" style="shape=partialRectangle;connectable=0;fillColor=none;top=0;left=0;bottom=0;right=0;align=left;spacingLeft=6;overflow=hidden;rounded=0;sketch=0;fontSize=14;" parent="8MdKcx37M3TQIIV3EagU-16" vertex="1">
          <mxGeometry x="30" width="160" height="30" as="geometry">
            <mxRectangle width="160" height="30" as="alternateBounds" />
          </mxGeometry>
        </mxCell>
        <mxCell id="8MdKcx37M3TQIIV3EagU-19" value="" style="shape=partialRectangle;collapsible=0;dropTarget=0;pointerEvents=0;fillColor=none;top=0;left=0;bottom=0;right=0;points=[[0,0.5],[1,0.5]];portConstraint=eastwest;rounded=0;sketch=0;fontSize=14;" parent="8MdKcx37M3TQIIV3EagU-9" vertex="1">
          <mxGeometry y="140" width="190" height="50" as="geometry" />
        </mxCell>
        <mxCell id="8MdKcx37M3TQIIV3EagU-20" value="" style="shape=partialRectangle;connectable=0;fillColor=none;top=0;left=0;bottom=0;right=0;editable=1;overflow=hidden;rounded=0;sketch=0;fontSize=14;" parent="8MdKcx37M3TQIIV3EagU-19" vertex="1">
          <mxGeometry width="30" height="50" as="geometry">
            <mxRectangle width="30" height="50" as="alternateBounds" />
          </mxGeometry>
        </mxCell>
        <mxCell id="8MdKcx37M3TQIIV3EagU-21" value="time &#xa;history" style="shape=partialRectangle;connectable=0;fillColor=none;top=0;left=0;bottom=0;right=0;align=left;spacingLeft=6;overflow=hidden;rounded=0;sketch=0;fontSize=14;" parent="8MdKcx37M3TQIIV3EagU-19" vertex="1">
          <mxGeometry x="30" width="160" height="50" as="geometry">
            <mxRectangle width="160" height="50" as="alternateBounds" />
          </mxGeometry>
        </mxCell>
        <mxCell id="8MdKcx37M3TQIIV3EagU-40" value="Staff" style="shape=table;startSize=30;container=1;collapsible=1;childLayout=tableLayout;fixedRows=1;rowLines=0;fontStyle=1;align=center;resizeLast=1;rounded=0;sketch=0;fontSize=14;fillColor=#bac8d3;strokeColor=#23445d;" parent="1" vertex="1">
          <mxGeometry x="140" y="850" width="140" height="150" as="geometry" />
        </mxCell>
        <mxCell id="8MdKcx37M3TQIIV3EagU-41" value="" style="shape=partialRectangle;collapsible=0;dropTarget=0;pointerEvents=0;fillColor=none;top=0;left=0;bottom=1;right=0;points=[[0,0.5],[1,0.5]];portConstraint=eastwest;rounded=0;sketch=0;fontSize=14;" parent="8MdKcx37M3TQIIV3EagU-40" vertex="1">
          <mxGeometry y="30" width="140" height="30" as="geometry" />
        </mxCell>
        <mxCell id="8MdKcx37M3TQIIV3EagU-42" value="PK" style="shape=partialRectangle;connectable=0;fillColor=none;top=0;left=0;bottom=0;right=0;fontStyle=1;overflow=hidden;rounded=0;sketch=0;fontSize=14;" parent="8MdKcx37M3TQIIV3EagU-41" vertex="1">
          <mxGeometry width="30" height="30" as="geometry">
            <mxRectangle width="30" height="30" as="alternateBounds" />
          </mxGeometry>
        </mxCell>
        <mxCell id="8MdKcx37M3TQIIV3EagU-43" value="staff_id" style="shape=partialRectangle;connectable=0;fillColor=none;top=0;left=0;bottom=0;right=0;align=left;spacingLeft=6;fontStyle=5;overflow=hidden;rounded=0;sketch=0;fontSize=14;" parent="8MdKcx37M3TQIIV3EagU-41" vertex="1">
          <mxGeometry x="30" width="110" height="30" as="geometry">
            <mxRectangle width="110" height="30" as="alternateBounds" />
          </mxGeometry>
        </mxCell>
        <mxCell id="8MdKcx37M3TQIIV3EagU-44" value="" style="shape=partialRectangle;collapsible=0;dropTarget=0;pointerEvents=0;fillColor=none;top=0;left=0;bottom=0;right=0;points=[[0,0.5],[1,0.5]];portConstraint=eastwest;rounded=0;sketch=0;fontSize=14;" parent="8MdKcx37M3TQIIV3EagU-40" vertex="1">
          <mxGeometry y="60" width="140" height="30" as="geometry" />
        </mxCell>
        <mxCell id="8MdKcx37M3TQIIV3EagU-45" value="" style="shape=partialRectangle;connectable=0;fillColor=none;top=0;left=0;bottom=0;right=0;editable=1;overflow=hidden;rounded=0;sketch=0;fontSize=14;" parent="8MdKcx37M3TQIIV3EagU-44" vertex="1">
          <mxGeometry width="30" height="30" as="geometry">
            <mxRectangle width="30" height="30" as="alternateBounds" />
          </mxGeometry>
        </mxCell>
        <mxCell id="8MdKcx37M3TQIIV3EagU-46" value="name" style="shape=partialRectangle;connectable=0;fillColor=none;top=0;left=0;bottom=0;right=0;align=left;spacingLeft=6;overflow=hidden;rounded=0;sketch=0;fontSize=14;" parent="8MdKcx37M3TQIIV3EagU-44" vertex="1">
          <mxGeometry x="30" width="110" height="30" as="geometry">
            <mxRectangle width="110" height="30" as="alternateBounds" />
          </mxGeometry>
        </mxCell>
        <mxCell id="8MdKcx37M3TQIIV3EagU-47" value="" style="shape=partialRectangle;collapsible=0;dropTarget=0;pointerEvents=0;fillColor=none;top=0;left=0;bottom=0;right=0;points=[[0,0.5],[1,0.5]];portConstraint=eastwest;rounded=0;sketch=0;fontSize=14;" parent="8MdKcx37M3TQIIV3EagU-40" vertex="1">
          <mxGeometry y="90" width="140" height="30" as="geometry" />
        </mxCell>
        <mxCell id="8MdKcx37M3TQIIV3EagU-48" value="" style="shape=partialRectangle;connectable=0;fillColor=none;top=0;left=0;bottom=0;right=0;editable=1;overflow=hidden;rounded=0;sketch=0;fontSize=14;" parent="8MdKcx37M3TQIIV3EagU-47" vertex="1">
          <mxGeometry width="30" height="30" as="geometry">
            <mxRectangle width="30" height="30" as="alternateBounds" />
          </mxGeometry>
        </mxCell>
        <mxCell id="8MdKcx37M3TQIIV3EagU-49" value="phone number" style="shape=partialRectangle;connectable=0;fillColor=none;top=0;left=0;bottom=0;right=0;align=left;spacingLeft=6;overflow=hidden;rounded=0;sketch=0;fontSize=14;" parent="8MdKcx37M3TQIIV3EagU-47" vertex="1">
          <mxGeometry x="30" width="110" height="30" as="geometry">
            <mxRectangle width="110" height="30" as="alternateBounds" />
          </mxGeometry>
        </mxCell>
        <mxCell id="8MdKcx37M3TQIIV3EagU-50" value="" style="shape=partialRectangle;collapsible=0;dropTarget=0;pointerEvents=0;fillColor=none;top=0;left=0;bottom=0;right=0;points=[[0,0.5],[1,0.5]];portConstraint=eastwest;rounded=0;sketch=0;fontSize=14;" parent="8MdKcx37M3TQIIV3EagU-40" vertex="1">
          <mxGeometry y="120" width="140" height="30" as="geometry" />
        </mxCell>
        <mxCell id="8MdKcx37M3TQIIV3EagU-51" value="" style="shape=partialRectangle;connectable=0;fillColor=none;top=0;left=0;bottom=0;right=0;editable=1;overflow=hidden;rounded=0;sketch=0;fontSize=14;" parent="8MdKcx37M3TQIIV3EagU-50" vertex="1">
          <mxGeometry width="30" height="30" as="geometry">
            <mxRectangle width="30" height="30" as="alternateBounds" />
          </mxGeometry>
        </mxCell>
        <mxCell id="8MdKcx37M3TQIIV3EagU-52" value="" style="shape=partialRectangle;connectable=0;fillColor=none;top=0;left=0;bottom=0;right=0;align=left;spacingLeft=6;overflow=hidden;rounded=0;sketch=0;fontSize=14;" parent="8MdKcx37M3TQIIV3EagU-50" vertex="1">
          <mxGeometry x="30" width="110" height="30" as="geometry">
            <mxRectangle width="110" height="30" as="alternateBounds" />
          </mxGeometry>
        </mxCell>
        <mxCell id="2ecnJPpk0YEC4RH_o7Lj-1" value="Bill" style="shape=table;startSize=35;container=1;collapsible=1;childLayout=tableLayout;fixedRows=1;rowLines=0;fontStyle=1;align=center;resizeLast=1;fillColor=#bac8d3;strokeColor=#23445d;" parent="1" vertex="1">
          <mxGeometry x="1190" y="24" width="200" height="192" as="geometry" />
        </mxCell>
        <mxCell id="2ecnJPpk0YEC4RH_o7Lj-2" value="" style="shape=partialRectangle;collapsible=0;dropTarget=0;pointerEvents=0;fillColor=none;top=0;left=0;bottom=1;right=0;points=[[0,0.5],[1,0.5]];portConstraint=eastwest;" parent="2ecnJPpk0YEC4RH_o7Lj-1" vertex="1">
          <mxGeometry y="35" width="200" height="40" as="geometry" />
        </mxCell>
        <mxCell id="2ecnJPpk0YEC4RH_o7Lj-3" value="PK" style="shape=partialRectangle;connectable=0;fillColor=none;top=0;left=0;bottom=0;right=0;fontStyle=1;overflow=hidden;" parent="2ecnJPpk0YEC4RH_o7Lj-2" vertex="1">
          <mxGeometry width="30" height="40" as="geometry">
            <mxRectangle width="30" height="40" as="alternateBounds" />
          </mxGeometry>
        </mxCell>
        <mxCell id="2ecnJPpk0YEC4RH_o7Lj-4" value="bill_id" style="shape=partialRectangle;connectable=0;fillColor=none;top=0;left=0;bottom=0;right=0;align=left;spacingLeft=6;fontStyle=5;overflow=hidden;" parent="2ecnJPpk0YEC4RH_o7Lj-2" vertex="1">
          <mxGeometry x="30" width="170" height="40" as="geometry">
            <mxRectangle width="170" height="40" as="alternateBounds" />
          </mxGeometry>
        </mxCell>
        <mxCell id="2ecnJPpk0YEC4RH_o7Lj-5" value="" style="shape=partialRectangle;collapsible=0;dropTarget=0;pointerEvents=0;fillColor=none;top=0;left=0;bottom=0;right=0;points=[[0,0.5],[1,0.5]];portConstraint=eastwest;" parent="2ecnJPpk0YEC4RH_o7Lj-1" vertex="1">
          <mxGeometry y="75" width="200" height="30" as="geometry" />
        </mxCell>
        <mxCell id="2ecnJPpk0YEC4RH_o7Lj-6" value="" style="shape=partialRectangle;connectable=0;fillColor=none;top=0;left=0;bottom=0;right=0;editable=1;overflow=hidden;" parent="2ecnJPpk0YEC4RH_o7Lj-5" vertex="1">
          <mxGeometry width="30" height="30" as="geometry">
            <mxRectangle width="30" height="30" as="alternateBounds" />
          </mxGeometry>
        </mxCell>
        <mxCell id="2ecnJPpk0YEC4RH_o7Lj-7" value="custumer_id" style="shape=partialRectangle;connectable=0;fillColor=none;top=0;left=0;bottom=0;right=0;align=left;spacingLeft=6;overflow=hidden;" parent="2ecnJPpk0YEC4RH_o7Lj-5" vertex="1">
          <mxGeometry x="30" width="170" height="30" as="geometry">
            <mxRectangle width="170" height="30" as="alternateBounds" />
          </mxGeometry>
        </mxCell>
        <mxCell id="2ecnJPpk0YEC4RH_o7Lj-8" value="" style="shape=partialRectangle;collapsible=0;dropTarget=0;pointerEvents=0;fillColor=none;top=0;left=0;bottom=0;right=0;points=[[0,0.5],[1,0.5]];portConstraint=eastwest;" parent="2ecnJPpk0YEC4RH_o7Lj-1" vertex="1">
          <mxGeometry y="105" width="200" height="30" as="geometry" />
        </mxCell>
        <mxCell id="2ecnJPpk0YEC4RH_o7Lj-9" value="" style="shape=partialRectangle;connectable=0;fillColor=none;top=0;left=0;bottom=0;right=0;editable=1;overflow=hidden;" parent="2ecnJPpk0YEC4RH_o7Lj-8" vertex="1">
          <mxGeometry width="30" height="30" as="geometry">
            <mxRectangle width="30" height="30" as="alternateBounds" />
          </mxGeometry>
        </mxCell>
        <mxCell id="2ecnJPpk0YEC4RH_o7Lj-10" value="order_id" style="shape=partialRectangle;connectable=0;fillColor=none;top=0;left=0;bottom=0;right=0;align=left;spacingLeft=6;overflow=hidden;" parent="2ecnJPpk0YEC4RH_o7Lj-8" vertex="1">
          <mxGeometry x="30" width="170" height="30" as="geometry">
            <mxRectangle width="170" height="30" as="alternateBounds" />
          </mxGeometry>
        </mxCell>
        <mxCell id="2ecnJPpk0YEC4RH_o7Lj-11" value="" style="shape=partialRectangle;collapsible=0;dropTarget=0;pointerEvents=0;fillColor=none;top=0;left=0;bottom=0;right=0;points=[[0,0.5],[1,0.5]];portConstraint=eastwest;" parent="2ecnJPpk0YEC4RH_o7Lj-1" vertex="1">
          <mxGeometry y="135" width="200" height="30" as="geometry" />
        </mxCell>
        <mxCell id="2ecnJPpk0YEC4RH_o7Lj-12" value="" style="shape=partialRectangle;connectable=0;fillColor=none;top=0;left=0;bottom=0;right=0;editable=1;overflow=hidden;" parent="2ecnJPpk0YEC4RH_o7Lj-11" vertex="1">
          <mxGeometry width="30" height="30" as="geometry">
            <mxRectangle width="30" height="30" as="alternateBounds" />
          </mxGeometry>
        </mxCell>
        <mxCell id="2ecnJPpk0YEC4RH_o7Lj-13" value="payment_date" style="shape=partialRectangle;connectable=0;fillColor=none;top=0;left=0;bottom=0;right=0;align=left;spacingLeft=6;overflow=hidden;" parent="2ecnJPpk0YEC4RH_o7Lj-11" vertex="1">
          <mxGeometry x="30" width="170" height="30" as="geometry">
            <mxRectangle width="170" height="30" as="alternateBounds" />
          </mxGeometry>
        </mxCell>
        <mxCell id="2ecnJPpk0YEC4RH_o7Lj-14" value="Declaration" style="shape=table;startSize=30;container=1;collapsible=1;childLayout=tableLayout;fixedRows=1;rowLines=0;fontStyle=1;align=center;resizeLast=1;fillColor=#bac8d3;strokeColor=#23445d;fontColor=#0A0A0A;" parent="1" vertex="1">
          <mxGeometry x="130" y="350" width="180" height="160" as="geometry" />
        </mxCell>
        <mxCell id="2ecnJPpk0YEC4RH_o7Lj-15" value="" style="shape=partialRectangle;collapsible=0;dropTarget=0;pointerEvents=0;fillColor=none;top=0;left=0;bottom=1;right=0;points=[[0,0.5],[1,0.5]];portConstraint=eastwest;" parent="2ecnJPpk0YEC4RH_o7Lj-14" vertex="1">
          <mxGeometry y="30" width="180" height="30" as="geometry" />
        </mxCell>
        <mxCell id="2ecnJPpk0YEC4RH_o7Lj-16" value="PK" style="shape=partialRectangle;connectable=0;fillColor=none;top=0;left=0;bottom=0;right=0;fontStyle=1;overflow=hidden;" parent="2ecnJPpk0YEC4RH_o7Lj-15" vertex="1">
          <mxGeometry width="30" height="30" as="geometry">
            <mxRectangle width="30" height="30" as="alternateBounds" />
          </mxGeometry>
        </mxCell>
        <mxCell id="2ecnJPpk0YEC4RH_o7Lj-17" value="declaration_ID" style="shape=partialRectangle;connectable=0;fillColor=none;top=0;left=0;bottom=0;right=0;align=left;spacingLeft=6;fontStyle=5;overflow=hidden;" parent="2ecnJPpk0YEC4RH_o7Lj-15" vertex="1">
          <mxGeometry x="30" width="150" height="30" as="geometry">
            <mxRectangle width="150" height="30" as="alternateBounds" />
          </mxGeometry>
        </mxCell>
        <mxCell id="2ecnJPpk0YEC4RH_o7Lj-18" value="" style="shape=partialRectangle;collapsible=0;dropTarget=0;pointerEvents=0;fillColor=none;top=0;left=0;bottom=0;right=0;points=[[0,0.5],[1,0.5]];portConstraint=eastwest;" parent="2ecnJPpk0YEC4RH_o7Lj-14" vertex="1">
          <mxGeometry y="60" width="180" height="30" as="geometry" />
        </mxCell>
        <mxCell id="2ecnJPpk0YEC4RH_o7Lj-19" value="" style="shape=partialRectangle;connectable=0;fillColor=none;top=0;left=0;bottom=0;right=0;editable=1;overflow=hidden;" parent="2ecnJPpk0YEC4RH_o7Lj-18" vertex="1">
          <mxGeometry width="30" height="30" as="geometry">
            <mxRectangle width="30" height="30" as="alternateBounds" />
          </mxGeometry>
        </mxCell>
        <mxCell id="2ecnJPpk0YEC4RH_o7Lj-20" value="package_id" style="shape=partialRectangle;connectable=0;fillColor=none;top=0;left=0;bottom=0;right=0;align=left;spacingLeft=6;overflow=hidden;" parent="2ecnJPpk0YEC4RH_o7Lj-18" vertex="1">
          <mxGeometry x="30" width="150" height="30" as="geometry">
            <mxRectangle width="150" height="30" as="alternateBounds" />
          </mxGeometry>
        </mxCell>
        <mxCell id="2ecnJPpk0YEC4RH_o7Lj-21" value="" style="shape=partialRectangle;collapsible=0;dropTarget=0;pointerEvents=0;fillColor=none;top=0;left=0;bottom=0;right=0;points=[[0,0.5],[1,0.5]];portConstraint=eastwest;" parent="2ecnJPpk0YEC4RH_o7Lj-14" vertex="1">
          <mxGeometry y="90" width="180" height="30" as="geometry" />
        </mxCell>
        <mxCell id="2ecnJPpk0YEC4RH_o7Lj-22" value="" style="shape=partialRectangle;connectable=0;fillColor=none;top=0;left=0;bottom=0;right=0;editable=1;overflow=hidden;" parent="2ecnJPpk0YEC4RH_o7Lj-21" vertex="1">
          <mxGeometry width="30" height="30" as="geometry">
            <mxRectangle width="30" height="30" as="alternateBounds" />
          </mxGeometry>
        </mxCell>
        <mxCell id="2ecnJPpk0YEC4RH_o7Lj-23" value="title" style="shape=partialRectangle;connectable=0;fillColor=none;top=0;left=0;bottom=0;right=0;align=left;spacingLeft=6;overflow=hidden;" parent="2ecnJPpk0YEC4RH_o7Lj-21" vertex="1">
          <mxGeometry x="30" width="150" height="30" as="geometry">
            <mxRectangle width="150" height="30" as="alternateBounds" />
          </mxGeometry>
        </mxCell>
        <mxCell id="2ecnJPpk0YEC4RH_o7Lj-24" value="" style="shape=partialRectangle;collapsible=0;dropTarget=0;pointerEvents=0;fillColor=none;top=0;left=0;bottom=0;right=0;points=[[0,0.5],[1,0.5]];portConstraint=eastwest;" parent="2ecnJPpk0YEC4RH_o7Lj-14" vertex="1">
          <mxGeometry y="120" width="180" height="30" as="geometry" />
        </mxCell>
        <mxCell id="2ecnJPpk0YEC4RH_o7Lj-25" value="" style="shape=partialRectangle;connectable=0;fillColor=none;top=0;left=0;bottom=0;right=0;editable=1;overflow=hidden;" parent="2ecnJPpk0YEC4RH_o7Lj-24" vertex="1">
          <mxGeometry width="30" height="30" as="geometry">
            <mxRectangle width="30" height="30" as="alternateBounds" />
          </mxGeometry>
        </mxCell>
        <mxCell id="2ecnJPpk0YEC4RH_o7Lj-26" value="content_package" style="shape=partialRectangle;connectable=0;fillColor=none;top=0;left=0;bottom=0;right=0;align=left;spacingLeft=6;overflow=hidden;" parent="2ecnJPpk0YEC4RH_o7Lj-24" vertex="1">
          <mxGeometry x="30" width="150" height="30" as="geometry">
            <mxRectangle width="150" height="30" as="alternateBounds" />
          </mxGeometry>
        </mxCell>
        <mxCell id="2ecnJPpk0YEC4RH_o7Lj-27" value="" style="edgeStyle=entityRelationEdgeStyle;fontSize=12;html=1;endArrow=ERoneToMany;rounded=0;fontColor=#0A0A0A;entryX=0;entryY=0.5;entryDx=0;entryDy=0;exitX=0;exitY=0;exitDx=0;exitDy=0;" parent="1" source="_zSrM_tOOz1Z_hss7G8G-73" target="C-vyLk0tnHw3VtMMgP7b-14" edge="1">
          <mxGeometry width="100" height="100" relative="1" as="geometry">
            <mxPoint x="30" y="1269" as="sourcePoint" />
            <mxPoint x="60" y="1030" as="targetPoint" />
          </mxGeometry>
        </mxCell>
        <mxCell id="2ecnJPpk0YEC4RH_o7Lj-29" value="" style="edgeStyle=entityRelationEdgeStyle;fontSize=12;html=1;endArrow=ERoneToMany;rounded=0;fontColor=#0A0A0A;entryX=1.017;entryY=0.186;entryDx=0;entryDy=0;entryPerimeter=0;exitX=1;exitY=0.5;exitDx=0;exitDy=0;" parent="1" source="_zSrM_tOOz1Z_hss7G8G-72" target="C-vyLk0tnHw3VtMMgP7b-20" edge="1">
          <mxGeometry width="100" height="100" relative="1" as="geometry">
            <mxPoint x="210" y="1270" as="sourcePoint" />
            <mxPoint x="310" y="1060" as="targetPoint" />
          </mxGeometry>
        </mxCell>
        <mxCell id="2ecnJPpk0YEC4RH_o7Lj-30" value="" style="edgeStyle=entityRelationEdgeStyle;fontSize=12;html=1;endArrow=ERoneToMany;rounded=0;fontColor=#0A0A0A;exitX=-0.019;exitY=0.792;exitDx=0;exitDy=0;exitPerimeter=0;entryX=1;entryY=0.5;entryDx=0;entryDy=0;" parent="1" source="_zSrM_tOOz1Z_hss7G8G-66" target="C-vyLk0tnHw3VtMMgP7b-17" edge="1">
          <mxGeometry width="100" height="100" relative="1" as="geometry">
            <mxPoint x="350" y="1200" as="sourcePoint" />
            <mxPoint x="420" y="920" as="targetPoint" />
          </mxGeometry>
        </mxCell>
        <mxCell id="2ecnJPpk0YEC4RH_o7Lj-147" style="edgeStyle=orthogonalEdgeStyle;rounded=0;orthogonalLoop=1;jettySize=auto;html=1;entryX=-0.016;entryY=0.204;entryDx=0;entryDy=0;entryPerimeter=0;fontColor=#0A0A0A;" parent="1" source="2ecnJPpk0YEC4RH_o7Lj-31" target="8MdKcx37M3TQIIV3EagU-9" edge="1">
          <mxGeometry relative="1" as="geometry" />
        </mxCell>
        <mxCell id="2ecnJPpk0YEC4RH_o7Lj-148" style="rounded=0;orthogonalLoop=1;jettySize=auto;html=1;exitX=0;exitY=0.5;exitDx=0;exitDy=0;entryX=1.011;entryY=0.179;entryDx=0;entryDy=0;entryPerimeter=0;fontColor=#0A0A0A;" parent="1" source="2ecnJPpk0YEC4RH_o7Lj-31" target="C-vyLk0tnHw3VtMMgP7b-13" edge="1">
          <mxGeometry relative="1" as="geometry" />
        </mxCell>
        <mxCell id="2ecnJPpk0YEC4RH_o7Lj-31" value="Has" style="shape=rhombus;perimeter=rhombusPerimeter;whiteSpace=wrap;html=1;align=center;fontColor=#0A0A0A;" parent="1" vertex="1">
          <mxGeometry x="270" y="1105" width="120" height="60" as="geometry" />
        </mxCell>
        <mxCell id="2ecnJPpk0YEC4RH_o7Lj-38" value="Type" style="shape=table;startSize=30;container=1;collapsible=1;childLayout=tableLayout;fixedRows=1;rowLines=0;fontStyle=1;align=center;resizeLast=1;fillColor=#bac8d3;strokeColor=#23445d;" parent="1" vertex="1">
          <mxGeometry x="820" y="650" width="190" height="170" as="geometry" />
        </mxCell>
        <mxCell id="2ecnJPpk0YEC4RH_o7Lj-39" value="" style="shape=partialRectangle;collapsible=0;dropTarget=0;pointerEvents=0;fillColor=none;top=0;left=0;bottom=1;right=0;points=[[0,0.5],[1,0.5]];portConstraint=eastwest;fontColor=#0A0A0A;" parent="2ecnJPpk0YEC4RH_o7Lj-38" vertex="1">
          <mxGeometry y="30" width="190" height="30" as="geometry" />
        </mxCell>
        <mxCell id="2ecnJPpk0YEC4RH_o7Lj-40" value="PK" style="shape=partialRectangle;connectable=0;fillColor=none;top=0;left=0;bottom=0;right=0;fontStyle=1;overflow=hidden;fontColor=#0A0A0A;" parent="2ecnJPpk0YEC4RH_o7Lj-39" vertex="1">
          <mxGeometry width="30" height="30" as="geometry">
            <mxRectangle width="30" height="30" as="alternateBounds" />
          </mxGeometry>
        </mxCell>
        <mxCell id="2ecnJPpk0YEC4RH_o7Lj-41" value="package_type" style="shape=partialRectangle;connectable=0;fillColor=none;top=0;left=0;bottom=0;right=0;align=left;spacingLeft=6;fontStyle=5;overflow=hidden;fontColor=#0A0A0A;" parent="2ecnJPpk0YEC4RH_o7Lj-39" vertex="1">
          <mxGeometry x="30" width="160" height="30" as="geometry">
            <mxRectangle width="160" height="30" as="alternateBounds" />
          </mxGeometry>
        </mxCell>
        <mxCell id="2ecnJPpk0YEC4RH_o7Lj-42" value="" style="shape=partialRectangle;collapsible=0;dropTarget=0;pointerEvents=0;fillColor=none;top=0;left=0;bottom=0;right=0;points=[[0,0.5],[1,0.5]];portConstraint=eastwest;fontColor=#0A0A0A;" parent="2ecnJPpk0YEC4RH_o7Lj-38" vertex="1">
          <mxGeometry y="60" width="190" height="30" as="geometry" />
        </mxCell>
        <mxCell id="2ecnJPpk0YEC4RH_o7Lj-43" value="" style="shape=partialRectangle;connectable=0;fillColor=none;top=0;left=0;bottom=0;right=0;editable=1;overflow=hidden;fontColor=#0A0A0A;" parent="2ecnJPpk0YEC4RH_o7Lj-42" vertex="1">
          <mxGeometry width="30" height="30" as="geometry">
            <mxRectangle width="30" height="30" as="alternateBounds" />
          </mxGeometry>
        </mxCell>
        <mxCell id="2ecnJPpk0YEC4RH_o7Lj-44" value="material" style="shape=partialRectangle;connectable=0;fillColor=none;top=0;left=0;bottom=0;right=0;align=left;spacingLeft=6;overflow=hidden;fontColor=#0A0A0A;" parent="2ecnJPpk0YEC4RH_o7Lj-42" vertex="1">
          <mxGeometry x="30" width="160" height="30" as="geometry">
            <mxRectangle width="160" height="30" as="alternateBounds" />
          </mxGeometry>
        </mxCell>
        <mxCell id="2ecnJPpk0YEC4RH_o7Lj-45" value="" style="shape=partialRectangle;collapsible=0;dropTarget=0;pointerEvents=0;fillColor=none;top=0;left=0;bottom=0;right=0;points=[[0,0.5],[1,0.5]];portConstraint=eastwest;fontColor=#0A0A0A;" parent="2ecnJPpk0YEC4RH_o7Lj-38" vertex="1">
          <mxGeometry y="90" width="190" height="30" as="geometry" />
        </mxCell>
        <mxCell id="2ecnJPpk0YEC4RH_o7Lj-46" value="" style="shape=partialRectangle;connectable=0;fillColor=none;top=0;left=0;bottom=0;right=0;editable=1;overflow=hidden;fontColor=#0A0A0A;" parent="2ecnJPpk0YEC4RH_o7Lj-45" vertex="1">
          <mxGeometry width="30" height="30" as="geometry">
            <mxRectangle width="30" height="30" as="alternateBounds" />
          </mxGeometry>
        </mxCell>
        <mxCell id="2ecnJPpk0YEC4RH_o7Lj-47" value="size " style="shape=partialRectangle;connectable=0;fillColor=none;top=0;left=0;bottom=0;right=0;align=left;spacingLeft=6;overflow=hidden;fontColor=#0A0A0A;" parent="2ecnJPpk0YEC4RH_o7Lj-45" vertex="1">
          <mxGeometry x="30" width="160" height="30" as="geometry">
            <mxRectangle width="160" height="30" as="alternateBounds" />
          </mxGeometry>
        </mxCell>
        <mxCell id="2ecnJPpk0YEC4RH_o7Lj-48" value="" style="shape=partialRectangle;collapsible=0;dropTarget=0;pointerEvents=0;fillColor=none;top=0;left=0;bottom=0;right=0;points=[[0,0.5],[1,0.5]];portConstraint=eastwest;fontColor=#0A0A0A;" parent="2ecnJPpk0YEC4RH_o7Lj-38" vertex="1">
          <mxGeometry y="120" width="190" height="30" as="geometry" />
        </mxCell>
        <mxCell id="2ecnJPpk0YEC4RH_o7Lj-49" value="" style="shape=partialRectangle;connectable=0;fillColor=none;top=0;left=0;bottom=0;right=0;editable=1;overflow=hidden;fontColor=#0A0A0A;" parent="2ecnJPpk0YEC4RH_o7Lj-48" vertex="1">
          <mxGeometry width="30" height="30" as="geometry">
            <mxRectangle width="30" height="30" as="alternateBounds" />
          </mxGeometry>
        </mxCell>
        <mxCell id="2ecnJPpk0YEC4RH_o7Lj-50" value="value" style="shape=partialRectangle;connectable=0;fillColor=none;top=0;left=0;bottom=0;right=0;align=left;spacingLeft=6;overflow=hidden;fontColor=#0A0A0A;" parent="2ecnJPpk0YEC4RH_o7Lj-48" vertex="1">
          <mxGeometry x="30" width="160" height="30" as="geometry">
            <mxRectangle width="160" height="30" as="alternateBounds" />
          </mxGeometry>
        </mxCell>
        <mxCell id="2ecnJPpk0YEC4RH_o7Lj-51" value="Transaction report" style="shape=table;startSize=30;container=1;collapsible=1;childLayout=tableLayout;fixedRows=1;rowLines=0;fontStyle=1;align=center;resizeLast=1;fillColor=#bac8d3;strokeColor=#23445d;" parent="1" vertex="1">
          <mxGeometry x="1197.5" y="385" width="185" height="170" as="geometry" />
        </mxCell>
        <mxCell id="2ecnJPpk0YEC4RH_o7Lj-52" value="" style="shape=partialRectangle;collapsible=0;dropTarget=0;pointerEvents=0;fillColor=none;top=0;left=0;bottom=1;right=0;points=[[0,0.5],[1,0.5]];portConstraint=eastwest;fontColor=#0A0A0A;" parent="2ecnJPpk0YEC4RH_o7Lj-51" vertex="1">
          <mxGeometry y="30" width="185" height="30" as="geometry" />
        </mxCell>
        <mxCell id="2ecnJPpk0YEC4RH_o7Lj-53" value="PK" style="shape=partialRectangle;connectable=0;fillColor=none;top=0;left=0;bottom=0;right=0;fontStyle=1;overflow=hidden;fontColor=#0A0A0A;" parent="2ecnJPpk0YEC4RH_o7Lj-52" vertex="1">
          <mxGeometry width="30" height="30" as="geometry">
            <mxRectangle width="30" height="30" as="alternateBounds" />
          </mxGeometry>
        </mxCell>
        <mxCell id="2ecnJPpk0YEC4RH_o7Lj-54" value="transaction_id" style="shape=partialRectangle;connectable=0;fillColor=none;top=0;left=0;bottom=0;right=0;align=left;spacingLeft=6;fontStyle=5;overflow=hidden;fontColor=#0A0A0A;" parent="2ecnJPpk0YEC4RH_o7Lj-52" vertex="1">
          <mxGeometry x="30" width="155" height="30" as="geometry">
            <mxRectangle width="155" height="30" as="alternateBounds" />
          </mxGeometry>
        </mxCell>
        <mxCell id="2ecnJPpk0YEC4RH_o7Lj-55" value="" style="shape=partialRectangle;collapsible=0;dropTarget=0;pointerEvents=0;fillColor=none;top=0;left=0;bottom=0;right=0;points=[[0,0.5],[1,0.5]];portConstraint=eastwest;fontColor=#0A0A0A;" parent="2ecnJPpk0YEC4RH_o7Lj-51" vertex="1">
          <mxGeometry y="60" width="185" height="30" as="geometry" />
        </mxCell>
        <mxCell id="2ecnJPpk0YEC4RH_o7Lj-56" value="" style="shape=partialRectangle;connectable=0;fillColor=none;top=0;left=0;bottom=0;right=0;editable=1;overflow=hidden;fontColor=#0A0A0A;" parent="2ecnJPpk0YEC4RH_o7Lj-55" vertex="1">
          <mxGeometry width="30" height="30" as="geometry">
            <mxRectangle width="30" height="30" as="alternateBounds" />
          </mxGeometry>
        </mxCell>
        <mxCell id="2ecnJPpk0YEC4RH_o7Lj-57" value="order_id" style="shape=partialRectangle;connectable=0;fillColor=none;top=0;left=0;bottom=0;right=0;align=left;spacingLeft=6;overflow=hidden;fontColor=#0A0A0A;" parent="2ecnJPpk0YEC4RH_o7Lj-55" vertex="1">
          <mxGeometry x="30" width="155" height="30" as="geometry">
            <mxRectangle width="155" height="30" as="alternateBounds" />
          </mxGeometry>
        </mxCell>
        <mxCell id="2ecnJPpk0YEC4RH_o7Lj-58" value="" style="shape=partialRectangle;collapsible=0;dropTarget=0;pointerEvents=0;fillColor=none;top=0;left=0;bottom=0;right=0;points=[[0,0.5],[1,0.5]];portConstraint=eastwest;fontColor=#0A0A0A;" parent="2ecnJPpk0YEC4RH_o7Lj-51" vertex="1">
          <mxGeometry y="90" width="185" height="30" as="geometry" />
        </mxCell>
        <mxCell id="2ecnJPpk0YEC4RH_o7Lj-59" value="" style="shape=partialRectangle;connectable=0;fillColor=none;top=0;left=0;bottom=0;right=0;editable=1;overflow=hidden;fontColor=#0A0A0A;" parent="2ecnJPpk0YEC4RH_o7Lj-58" vertex="1">
          <mxGeometry width="30" height="30" as="geometry">
            <mxRectangle width="30" height="30" as="alternateBounds" />
          </mxGeometry>
        </mxCell>
        <mxCell id="2ecnJPpk0YEC4RH_o7Lj-60" value="payment method" style="shape=partialRectangle;connectable=0;fillColor=none;top=0;left=0;bottom=0;right=0;align=left;spacingLeft=6;overflow=hidden;fontColor=#0A0A0A;" parent="2ecnJPpk0YEC4RH_o7Lj-58" vertex="1">
          <mxGeometry x="30" width="155" height="30" as="geometry">
            <mxRectangle width="155" height="30" as="alternateBounds" />
          </mxGeometry>
        </mxCell>
        <mxCell id="2ecnJPpk0YEC4RH_o7Lj-61" value="" style="shape=partialRectangle;collapsible=0;dropTarget=0;pointerEvents=0;fillColor=none;top=0;left=0;bottom=0;right=0;points=[[0,0.5],[1,0.5]];portConstraint=eastwest;fontColor=#0A0A0A;" parent="2ecnJPpk0YEC4RH_o7Lj-51" vertex="1">
          <mxGeometry y="120" width="185" height="30" as="geometry" />
        </mxCell>
        <mxCell id="2ecnJPpk0YEC4RH_o7Lj-62" value="" style="shape=partialRectangle;connectable=0;fillColor=none;top=0;left=0;bottom=0;right=0;editable=1;overflow=hidden;fontColor=#0A0A0A;" parent="2ecnJPpk0YEC4RH_o7Lj-61" vertex="1">
          <mxGeometry width="30" height="30" as="geometry">
            <mxRectangle width="30" height="30" as="alternateBounds" />
          </mxGeometry>
        </mxCell>
        <mxCell id="2ecnJPpk0YEC4RH_o7Lj-63" value="date" style="shape=partialRectangle;connectable=0;fillColor=none;top=0;left=0;bottom=0;right=0;align=left;spacingLeft=6;overflow=hidden;fontColor=#0A0A0A;" parent="2ecnJPpk0YEC4RH_o7Lj-61" vertex="1">
          <mxGeometry x="30" width="155" height="30" as="geometry">
            <mxRectangle width="155" height="30" as="alternateBounds" />
          </mxGeometry>
        </mxCell>
        <mxCell id="2ecnJPpk0YEC4RH_o7Lj-64" value="Contract" style="shape=table;startSize=30;container=1;collapsible=1;childLayout=tableLayout;fixedRows=1;rowLines=0;fontStyle=1;align=center;resizeLast=1;fillColor=#bac8d3;strokeColor=#23445d;" parent="1" vertex="1">
          <mxGeometry x="485" y="35" width="180" height="160" as="geometry" />
        </mxCell>
        <mxCell id="2ecnJPpk0YEC4RH_o7Lj-65" value="" style="shape=partialRectangle;collapsible=0;dropTarget=0;pointerEvents=0;fillColor=none;top=0;left=0;bottom=1;right=0;points=[[0,0.5],[1,0.5]];portConstraint=eastwest;fontColor=#0A0A0A;" parent="2ecnJPpk0YEC4RH_o7Lj-64" vertex="1">
          <mxGeometry y="30" width="180" height="30" as="geometry" />
        </mxCell>
        <mxCell id="2ecnJPpk0YEC4RH_o7Lj-66" value="PK" style="shape=partialRectangle;connectable=0;fillColor=none;top=0;left=0;bottom=0;right=0;fontStyle=1;overflow=hidden;fontColor=#0A0A0A;" parent="2ecnJPpk0YEC4RH_o7Lj-65" vertex="1">
          <mxGeometry width="30" height="30" as="geometry">
            <mxRectangle width="30" height="30" as="alternateBounds" />
          </mxGeometry>
        </mxCell>
        <mxCell id="2ecnJPpk0YEC4RH_o7Lj-67" value="contract_id" style="shape=partialRectangle;connectable=0;fillColor=none;top=0;left=0;bottom=0;right=0;align=left;spacingLeft=6;fontStyle=5;overflow=hidden;fontColor=#0A0A0A;" parent="2ecnJPpk0YEC4RH_o7Lj-65" vertex="1">
          <mxGeometry x="30" width="150" height="30" as="geometry">
            <mxRectangle width="150" height="30" as="alternateBounds" />
          </mxGeometry>
        </mxCell>
        <mxCell id="2ecnJPpk0YEC4RH_o7Lj-68" value="" style="shape=partialRectangle;collapsible=0;dropTarget=0;pointerEvents=0;fillColor=none;top=0;left=0;bottom=0;right=0;points=[[0,0.5],[1,0.5]];portConstraint=eastwest;fontColor=#0A0A0A;" parent="2ecnJPpk0YEC4RH_o7Lj-64" vertex="1">
          <mxGeometry y="60" width="180" height="30" as="geometry" />
        </mxCell>
        <mxCell id="2ecnJPpk0YEC4RH_o7Lj-69" value="" style="shape=partialRectangle;connectable=0;fillColor=none;top=0;left=0;bottom=0;right=0;editable=1;overflow=hidden;fontColor=#0A0A0A;" parent="2ecnJPpk0YEC4RH_o7Lj-68" vertex="1">
          <mxGeometry width="30" height="30" as="geometry">
            <mxRectangle width="30" height="30" as="alternateBounds" />
          </mxGeometry>
        </mxCell>
        <mxCell id="2ecnJPpk0YEC4RH_o7Lj-70" value="custumer info" style="shape=partialRectangle;connectable=0;fillColor=none;top=0;left=0;bottom=0;right=0;align=left;spacingLeft=6;overflow=hidden;fontColor=#0A0A0A;" parent="2ecnJPpk0YEC4RH_o7Lj-68" vertex="1">
          <mxGeometry x="30" width="150" height="30" as="geometry">
            <mxRectangle width="150" height="30" as="alternateBounds" />
          </mxGeometry>
        </mxCell>
        <mxCell id="2ecnJPpk0YEC4RH_o7Lj-71" value="" style="shape=partialRectangle;collapsible=0;dropTarget=0;pointerEvents=0;fillColor=none;top=0;left=0;bottom=0;right=0;points=[[0,0.5],[1,0.5]];portConstraint=eastwest;fontColor=#0A0A0A;" parent="2ecnJPpk0YEC4RH_o7Lj-64" vertex="1">
          <mxGeometry y="90" width="180" height="30" as="geometry" />
        </mxCell>
        <mxCell id="2ecnJPpk0YEC4RH_o7Lj-72" value="" style="shape=partialRectangle;connectable=0;fillColor=none;top=0;left=0;bottom=0;right=0;editable=1;overflow=hidden;fontColor=#0A0A0A;" parent="2ecnJPpk0YEC4RH_o7Lj-71" vertex="1">
          <mxGeometry width="30" height="30" as="geometry">
            <mxRectangle width="30" height="30" as="alternateBounds" />
          </mxGeometry>
        </mxCell>
        <mxCell id="2ecnJPpk0YEC4RH_o7Lj-73" value="company info" style="shape=partialRectangle;connectable=0;fillColor=none;top=0;left=0;bottom=0;right=0;align=left;spacingLeft=6;overflow=hidden;fontColor=#0A0A0A;" parent="2ecnJPpk0YEC4RH_o7Lj-71" vertex="1">
          <mxGeometry x="30" width="150" height="30" as="geometry">
            <mxRectangle width="150" height="30" as="alternateBounds" />
          </mxGeometry>
        </mxCell>
        <mxCell id="2ecnJPpk0YEC4RH_o7Lj-74" value="" style="shape=partialRectangle;collapsible=0;dropTarget=0;pointerEvents=0;fillColor=none;top=0;left=0;bottom=0;right=0;points=[[0,0.5],[1,0.5]];portConstraint=eastwest;fontColor=#0A0A0A;" parent="2ecnJPpk0YEC4RH_o7Lj-64" vertex="1">
          <mxGeometry y="120" width="180" height="30" as="geometry" />
        </mxCell>
        <mxCell id="2ecnJPpk0YEC4RH_o7Lj-75" value="" style="shape=partialRectangle;connectable=0;fillColor=none;top=0;left=0;bottom=0;right=0;editable=1;overflow=hidden;fontColor=#0A0A0A;" parent="2ecnJPpk0YEC4RH_o7Lj-74" vertex="1">
          <mxGeometry width="30" height="30" as="geometry">
            <mxRectangle width="30" height="30" as="alternateBounds" />
          </mxGeometry>
        </mxCell>
        <mxCell id="2ecnJPpk0YEC4RH_o7Lj-76" value="title" style="shape=partialRectangle;connectable=0;fillColor=none;top=0;left=0;bottom=0;right=0;align=left;spacingLeft=6;overflow=hidden;fontColor=#0A0A0A;" parent="2ecnJPpk0YEC4RH_o7Lj-74" vertex="1">
          <mxGeometry x="30" width="150" height="30" as="geometry">
            <mxRectangle width="150" height="30" as="alternateBounds" />
          </mxGeometry>
        </mxCell>
        <mxCell id="2ecnJPpk0YEC4RH_o7Lj-133" style="edgeStyle=orthogonalEdgeStyle;rounded=0;orthogonalLoop=1;jettySize=auto;html=1;fontColor=#0A0A0A;" parent="1" source="_zSrM_tOOz1Z_hss7G8G-77" edge="1">
          <mxGeometry relative="1" as="geometry">
            <mxPoint x="500" y="840" as="targetPoint" />
          </mxGeometry>
        </mxCell>
        <mxCell id="_zSrM_tOOz1Z_hss7G8G-77" value="Sends" style="shape=rhombus;perimeter=rhombusPerimeter;whiteSpace=wrap;html=1;align=center;fontFamily=Verdana;fontSize=14;rounded=0;" parent="1" vertex="1">
          <mxGeometry x="330" y="895" width="120" height="60" as="geometry" />
        </mxCell>
        <mxCell id="2ecnJPpk0YEC4RH_o7Lj-80" value="" style="edgeStyle=orthogonalEdgeStyle;rounded=0;orthogonalLoop=1;jettySize=auto;html=1;fontColor=#0A0A0A;endArrow=none;" parent="1" source="8MdKcx37M3TQIIV3EagU-44" target="_zSrM_tOOz1Z_hss7G8G-77" edge="1">
          <mxGeometry relative="1" as="geometry">
            <mxPoint x="510" y="795" as="targetPoint" />
            <mxPoint x="295" y="795" as="sourcePoint" />
          </mxGeometry>
        </mxCell>
        <mxCell id="2ecnJPpk0YEC4RH_o7Lj-88" style="edgeStyle=orthogonalEdgeStyle;rounded=0;orthogonalLoop=1;jettySize=auto;html=1;entryX=1;entryY=0.5;entryDx=0;entryDy=0;fontColor=#0A0A0A;startArrow=none;" parent="1" source="2ecnJPpk0YEC4RH_o7Lj-87" target="2ecnJPpk0YEC4RH_o7Lj-65" edge="1">
          <mxGeometry relative="1" as="geometry" />
        </mxCell>
        <mxCell id="2ecnJPpk0YEC4RH_o7Lj-87" value="signs" style="shape=rhombus;perimeter=rhombusPerimeter;whiteSpace=wrap;html=1;align=center;fontColor=#0A0A0A;" parent="1" vertex="1">
          <mxGeometry x="670" y="110" width="110" height="50" as="geometry" />
        </mxCell>
        <mxCell id="2ecnJPpk0YEC4RH_o7Lj-89" value="" style="edgeStyle=orthogonalEdgeStyle;rounded=0;orthogonalLoop=1;jettySize=auto;html=1;entryX=1;entryY=0.5;entryDx=0;entryDy=0;fontColor=#0A0A0A;endArrow=none;" parent="1" source="C-vyLk0tnHw3VtMMgP7b-27" target="2ecnJPpk0YEC4RH_o7Lj-87" edge="1">
          <mxGeometry relative="1" as="geometry">
            <mxPoint x="800" y="150.0666666666666" as="sourcePoint" />
            <mxPoint x="665" y="80" as="targetPoint" />
          </mxGeometry>
        </mxCell>
        <mxCell id="2ecnJPpk0YEC4RH_o7Lj-90" style="edgeStyle=orthogonalEdgeStyle;rounded=0;orthogonalLoop=1;jettySize=auto;html=1;entryX=0;entryY=0.5;entryDx=0;entryDy=0;fontColor=#0A0A0A;startArrow=none;" parent="1" source="2ecnJPpk0YEC4RH_o7Lj-91" target="2ecnJPpk0YEC4RH_o7Lj-65" edge="1">
          <mxGeometry relative="1" as="geometry" />
        </mxCell>
        <mxCell id="2ecnJPpk0YEC4RH_o7Lj-91" value="makes" style="shape=rhombus;perimeter=rhombusPerimeter;whiteSpace=wrap;html=1;align=center;fontColor=#0A0A0A;" parent="1" vertex="1">
          <mxGeometry x="360" y="50" width="100" height="60" as="geometry" />
        </mxCell>
        <mxCell id="2ecnJPpk0YEC4RH_o7Lj-92" value="" style="edgeStyle=orthogonalEdgeStyle;rounded=0;orthogonalLoop=1;jettySize=auto;html=1;entryX=0;entryY=0.5;entryDx=0;entryDy=0;fontColor=#0A0A0A;endArrow=none;" parent="1" source="C-vyLk0tnHw3VtMMgP7b-6" target="2ecnJPpk0YEC4RH_o7Lj-91" edge="1">
          <mxGeometry relative="1" as="geometry">
            <mxPoint x="340" y="135" as="sourcePoint" />
            <mxPoint x="485" y="80" as="targetPoint" />
          </mxGeometry>
        </mxCell>
        <mxCell id="2ecnJPpk0YEC4RH_o7Lj-100" style="edgeStyle=orthogonalEdgeStyle;rounded=0;orthogonalLoop=1;jettySize=auto;html=1;exitX=1;exitY=0.5;exitDx=0;exitDy=0;entryX=0;entryY=0.5;entryDx=0;entryDy=0;fontColor=#0A0A0A;" parent="1" source="2ecnJPpk0YEC4RH_o7Lj-85" target="2ecnJPpk0YEC4RH_o7Lj-39" edge="1">
          <mxGeometry relative="1" as="geometry" />
        </mxCell>
        <mxCell id="2ecnJPpk0YEC4RH_o7Lj-105" style="edgeStyle=orthogonalEdgeStyle;rounded=0;orthogonalLoop=1;jettySize=auto;html=1;exitX=0;exitY=0.5;exitDx=0;exitDy=0;entryX=1;entryY=0.5;entryDx=0;entryDy=0;fontColor=#0A0A0A;" parent="1" source="2ecnJPpk0YEC4RH_o7Lj-85" target="_zSrM_tOOz1Z_hss7G8G-2" edge="1">
          <mxGeometry relative="1" as="geometry">
            <Array as="points">
              <mxPoint x="642" y="705" />
              <mxPoint x="642" y="705" />
            </Array>
          </mxGeometry>
        </mxCell>
        <mxCell id="2ecnJPpk0YEC4RH_o7Lj-85" value="have" style="shape=rhombus;perimeter=rhombusPerimeter;whiteSpace=wrap;html=1;align=center;fontColor=#0A0A0A;" parent="1" vertex="1">
          <mxGeometry x="642.5" y="675" width="120" height="60" as="geometry" />
        </mxCell>
        <mxCell id="2ecnJPpk0YEC4RH_o7Lj-143" style="edgeStyle=orthogonalEdgeStyle;rounded=0;orthogonalLoop=1;jettySize=auto;html=1;entryX=0.5;entryY=0;entryDx=0;entryDy=0;fontColor=#0A0A0A;" parent="1" source="2ecnJPpk0YEC4RH_o7Lj-114" target="_zSrM_tOOz1Z_hss7G8G-1" edge="1">
          <mxGeometry relative="1" as="geometry" />
        </mxCell>
        <mxCell id="2ecnJPpk0YEC4RH_o7Lj-114" value="Prepaid" style="shape=table;startSize=30;container=1;collapsible=1;childLayout=tableLayout;fixedRows=1;rowLines=0;fontStyle=1;align=center;resizeLast=1;fillColor=#bac8d3;strokeColor=#23445d;" parent="1" vertex="1">
          <mxGeometry x="755" y="390" width="180" height="160" as="geometry" />
        </mxCell>
        <mxCell id="2ecnJPpk0YEC4RH_o7Lj-115" value="" style="shape=partialRectangle;collapsible=0;dropTarget=0;pointerEvents=0;fillColor=none;top=0;left=0;bottom=1;right=0;points=[[0,0.5],[1,0.5]];portConstraint=eastwest;fontColor=#0A0A0A;" parent="2ecnJPpk0YEC4RH_o7Lj-114" vertex="1">
          <mxGeometry y="30" width="180" height="30" as="geometry" />
        </mxCell>
        <mxCell id="2ecnJPpk0YEC4RH_o7Lj-116" value="PK" style="shape=partialRectangle;connectable=0;fillColor=none;top=0;left=0;bottom=0;right=0;fontStyle=1;overflow=hidden;fontColor=#0A0A0A;" parent="2ecnJPpk0YEC4RH_o7Lj-115" vertex="1">
          <mxGeometry width="30" height="30" as="geometry">
            <mxRectangle width="30" height="30" as="alternateBounds" />
          </mxGeometry>
        </mxCell>
        <mxCell id="2ecnJPpk0YEC4RH_o7Lj-117" value="prepaid_id" style="shape=partialRectangle;connectable=0;fillColor=none;top=0;left=0;bottom=0;right=0;align=left;spacingLeft=6;fontStyle=5;overflow=hidden;fontColor=#0A0A0A;" parent="2ecnJPpk0YEC4RH_o7Lj-115" vertex="1">
          <mxGeometry x="30" width="150" height="30" as="geometry">
            <mxRectangle width="150" height="30" as="alternateBounds" />
          </mxGeometry>
        </mxCell>
        <mxCell id="2ecnJPpk0YEC4RH_o7Lj-118" value="" style="shape=partialRectangle;collapsible=0;dropTarget=0;pointerEvents=0;fillColor=none;top=0;left=0;bottom=0;right=0;points=[[0,0.5],[1,0.5]];portConstraint=eastwest;fontColor=#0A0A0A;" parent="2ecnJPpk0YEC4RH_o7Lj-114" vertex="1">
          <mxGeometry y="60" width="180" height="30" as="geometry" />
        </mxCell>
        <mxCell id="2ecnJPpk0YEC4RH_o7Lj-119" value="" style="shape=partialRectangle;connectable=0;fillColor=none;top=0;left=0;bottom=0;right=0;editable=1;overflow=hidden;fontColor=#0A0A0A;" parent="2ecnJPpk0YEC4RH_o7Lj-118" vertex="1">
          <mxGeometry width="30" height="30" as="geometry">
            <mxRectangle width="30" height="30" as="alternateBounds" />
          </mxGeometry>
        </mxCell>
        <mxCell id="2ecnJPpk0YEC4RH_o7Lj-120" value="transaction_id" style="shape=partialRectangle;connectable=0;fillColor=none;top=0;left=0;bottom=0;right=0;align=left;spacingLeft=6;overflow=hidden;fontColor=#0A0A0A;" parent="2ecnJPpk0YEC4RH_o7Lj-118" vertex="1">
          <mxGeometry x="30" width="150" height="30" as="geometry">
            <mxRectangle width="150" height="30" as="alternateBounds" />
          </mxGeometry>
        </mxCell>
        <mxCell id="2ecnJPpk0YEC4RH_o7Lj-121" value="" style="shape=partialRectangle;collapsible=0;dropTarget=0;pointerEvents=0;fillColor=none;top=0;left=0;bottom=0;right=0;points=[[0,0.5],[1,0.5]];portConstraint=eastwest;fontColor=#0A0A0A;" parent="2ecnJPpk0YEC4RH_o7Lj-114" vertex="1">
          <mxGeometry y="90" width="180" height="30" as="geometry" />
        </mxCell>
        <mxCell id="2ecnJPpk0YEC4RH_o7Lj-122" value="" style="shape=partialRectangle;connectable=0;fillColor=none;top=0;left=0;bottom=0;right=0;editable=1;overflow=hidden;fontColor=#0A0A0A;" parent="2ecnJPpk0YEC4RH_o7Lj-121" vertex="1">
          <mxGeometry width="30" height="30" as="geometry">
            <mxRectangle width="30" height="30" as="alternateBounds" />
          </mxGeometry>
        </mxCell>
        <mxCell id="2ecnJPpk0YEC4RH_o7Lj-123" value="order_id" style="shape=partialRectangle;connectable=0;fillColor=none;top=0;left=0;bottom=0;right=0;align=left;spacingLeft=6;overflow=hidden;fontColor=#0A0A0A;" parent="2ecnJPpk0YEC4RH_o7Lj-121" vertex="1">
          <mxGeometry x="30" width="150" height="30" as="geometry">
            <mxRectangle width="150" height="30" as="alternateBounds" />
          </mxGeometry>
        </mxCell>
        <mxCell id="2ecnJPpk0YEC4RH_o7Lj-124" value="" style="shape=partialRectangle;collapsible=0;dropTarget=0;pointerEvents=0;fillColor=none;top=0;left=0;bottom=0;right=0;points=[[0,0.5],[1,0.5]];portConstraint=eastwest;fontColor=#0A0A0A;" parent="2ecnJPpk0YEC4RH_o7Lj-114" vertex="1">
          <mxGeometry y="120" width="180" height="30" as="geometry" />
        </mxCell>
        <mxCell id="2ecnJPpk0YEC4RH_o7Lj-125" value="" style="shape=partialRectangle;connectable=0;fillColor=none;top=0;left=0;bottom=0;right=0;editable=1;overflow=hidden;fontColor=#0A0A0A;" parent="2ecnJPpk0YEC4RH_o7Lj-124" vertex="1">
          <mxGeometry width="30" height="30" as="geometry">
            <mxRectangle width="30" height="30" as="alternateBounds" />
          </mxGeometry>
        </mxCell>
        <mxCell id="2ecnJPpk0YEC4RH_o7Lj-126" value="date" style="shape=partialRectangle;connectable=0;fillColor=none;top=0;left=0;bottom=0;right=0;align=left;spacingLeft=6;overflow=hidden;fontColor=#0A0A0A;" parent="2ecnJPpk0YEC4RH_o7Lj-124" vertex="1">
          <mxGeometry x="30" width="150" height="30" as="geometry">
            <mxRectangle width="150" height="30" as="alternateBounds" />
          </mxGeometry>
        </mxCell>
        <mxCell id="2ecnJPpk0YEC4RH_o7Lj-134" style="edgeStyle=orthogonalEdgeStyle;rounded=0;orthogonalLoop=1;jettySize=auto;html=1;exitX=0;exitY=0.5;exitDx=0;exitDy=0;fontColor=#0A0A0A;" parent="1" source="8MdKcx37M3TQIIV3EagU-2" edge="1">
          <mxGeometry relative="1" as="geometry">
            <mxPoint x="540" y="840" as="targetPoint" />
          </mxGeometry>
        </mxCell>
        <mxCell id="8MdKcx37M3TQIIV3EagU-2" value="delivers" style="shape=rhombus;perimeter=rhombusPerimeter;whiteSpace=wrap;html=1;align=center;rounded=0;sketch=0;fontSize=14;" parent="1" vertex="1">
          <mxGeometry x="650" y="890" width="105" height="55" as="geometry" />
        </mxCell>
        <mxCell id="2ecnJPpk0YEC4RH_o7Lj-128" value="" style="edgeStyle=orthogonalEdgeStyle;rounded=0;orthogonalLoop=1;jettySize=auto;html=1;fontColor=#0A0A0A;endArrow=none;" parent="1" target="8MdKcx37M3TQIIV3EagU-2" edge="1">
          <mxGeometry relative="1" as="geometry">
            <mxPoint x="810" y="1010" as="sourcePoint" />
            <mxPoint x="570" y="580" as="targetPoint" />
            <Array as="points">
              <mxPoint x="810" y="918" />
            </Array>
          </mxGeometry>
        </mxCell>
        <mxCell id="2ecnJPpk0YEC4RH_o7Lj-129" style="edgeStyle=orthogonalEdgeStyle;rounded=0;orthogonalLoop=1;jettySize=auto;html=1;exitX=0;exitY=0.5;exitDx=0;exitDy=0;fontColor=#0A0A0A;" parent="1" source="_zSrM_tOOz1Z_hss7G8G-32" target="8MdKcx37M3TQIIV3EagU-10" edge="1">
          <mxGeometry relative="1" as="geometry" />
        </mxCell>
        <mxCell id="2ecnJPpk0YEC4RH_o7Lj-131" value="" style="edgeStyle=orthogonalEdgeStyle;rounded=0;orthogonalLoop=1;jettySize=auto;html=1;fontColor=#0A0A0A;endArrow=none;startArrow=none;entryX=-0.007;entryY=-0.011;entryDx=0;entryDy=0;entryPerimeter=0;" parent="1" source="2ecnJPpk0YEC4RH_o7Lj-110" target="8MdKcx37M3TQIIV3EagU-41" edge="1">
          <mxGeometry relative="1" as="geometry">
            <mxPoint x="21" y="880" as="targetPoint" />
            <mxPoint x="120" y="115" as="sourcePoint" />
            <Array as="points">
              <mxPoint x="15" y="880" />
            </Array>
          </mxGeometry>
        </mxCell>
        <mxCell id="2ecnJPpk0YEC4RH_o7Lj-110" value="sends order" style="shape=rhombus;perimeter=rhombusPerimeter;whiteSpace=wrap;html=1;align=center;fontColor=#0A0A0A;" parent="1" vertex="1">
          <mxGeometry x="-40" y="750" width="110" height="45" as="geometry" />
        </mxCell>
        <mxCell id="2ecnJPpk0YEC4RH_o7Lj-132" value="" style="edgeStyle=orthogonalEdgeStyle;rounded=0;orthogonalLoop=1;jettySize=auto;html=1;fontColor=#0A0A0A;endArrow=none;" parent="1" source="C-vyLk0tnHw3VtMMgP7b-6" target="2ecnJPpk0YEC4RH_o7Lj-110" edge="1">
          <mxGeometry relative="1" as="geometry">
            <mxPoint x="21" y="880" as="targetPoint" />
            <mxPoint x="120" y="115" as="sourcePoint" />
            <Array as="points" />
          </mxGeometry>
        </mxCell>
        <mxCell id="2ecnJPpk0YEC4RH_o7Lj-137" style="edgeStyle=orthogonalEdgeStyle;rounded=0;orthogonalLoop=1;jettySize=auto;html=1;exitX=1;exitY=0.5;exitDx=0;exitDy=0;fontColor=#0A0A0A;entryX=0;entryY=0.5;entryDx=0;entryDy=0;startArrow=none;" parent="1" source="8MdKcx37M3TQIIV3EagU-35" target="2ecnJPpk0YEC4RH_o7Lj-2" edge="1">
          <mxGeometry relative="1" as="geometry">
            <mxPoint x="1260" y="79.66666666666663" as="targetPoint" />
          </mxGeometry>
        </mxCell>
        <mxCell id="8MdKcx37M3TQIIV3EagU-35" value="pays" style="shape=rhombus;perimeter=rhombusPerimeter;whiteSpace=wrap;html=1;align=center;rounded=0;sketch=0;fontSize=14;" parent="1" vertex="1">
          <mxGeometry x="1060" y="54" width="90" height="50" as="geometry" />
        </mxCell>
        <mxCell id="2ecnJPpk0YEC4RH_o7Lj-138" value="" style="edgeStyle=orthogonalEdgeStyle;rounded=0;orthogonalLoop=1;jettySize=auto;html=1;exitX=1;exitY=0.5;exitDx=0;exitDy=0;fontColor=#0A0A0A;entryX=0;entryY=0.5;entryDx=0;entryDy=0;endArrow=none;" parent="1" source="C-vyLk0tnHw3VtMMgP7b-24" target="8MdKcx37M3TQIIV3EagU-35" edge="1">
          <mxGeometry relative="1" as="geometry">
            <mxPoint x="1270" y="79" as="targetPoint" />
            <mxPoint x="1010" y="80" as="sourcePoint" />
          </mxGeometry>
        </mxCell>
        <mxCell id="2ecnJPpk0YEC4RH_o7Lj-139" style="edgeStyle=orthogonalEdgeStyle;rounded=0;orthogonalLoop=1;jettySize=auto;html=1;exitX=1;exitY=0.5;exitDx=0;exitDy=0;entryX=1;entryY=0.5;entryDx=0;entryDy=0;fontColor=#0A0A0A;startArrow=none;" parent="1" source="2ecnJPpk0YEC4RH_o7Lj-103" target="2ecnJPpk0YEC4RH_o7Lj-52" edge="1">
          <mxGeometry relative="1" as="geometry">
            <Array as="points">
              <mxPoint x="1565" y="74" />
              <mxPoint x="1565" y="70" />
              <mxPoint x="1533" y="70" />
              <mxPoint x="1533" y="65" />
              <mxPoint x="1540" y="65" />
              <mxPoint x="1540" y="430" />
            </Array>
          </mxGeometry>
        </mxCell>
        <mxCell id="2ecnJPpk0YEC4RH_o7Lj-103" value="has" style="shape=rhombus;perimeter=rhombusPerimeter;whiteSpace=wrap;html=1;align=center;rounded=0;sketch=0;fontSize=14;" parent="1" vertex="1">
          <mxGeometry x="1480" y="49" width="105" height="50" as="geometry" />
        </mxCell>
        <mxCell id="2ecnJPpk0YEC4RH_o7Lj-141" value="" style="edgeStyle=orthogonalEdgeStyle;rounded=0;orthogonalLoop=1;jettySize=auto;html=1;exitX=1;exitY=0.5;exitDx=0;exitDy=0;entryX=0;entryY=0.25;entryDx=0;entryDy=0;fontColor=#0A0A0A;endArrow=none;" parent="1" source="2ecnJPpk0YEC4RH_o7Lj-2" target="2ecnJPpk0YEC4RH_o7Lj-103" edge="1">
          <mxGeometry relative="1" as="geometry">
            <mxPoint x="1390" y="79" as="sourcePoint" />
            <mxPoint x="1630" y="77.5" as="targetPoint" />
            <Array as="points">
              <mxPoint x="1390" y="66" />
            </Array>
          </mxGeometry>
        </mxCell>
        <mxCell id="2ecnJPpk0YEC4RH_o7Lj-144" style="edgeStyle=orthogonalEdgeStyle;rounded=0;orthogonalLoop=1;jettySize=auto;html=1;exitX=0;exitY=0.5;exitDx=0;exitDy=0;entryX=0.5;entryY=1;entryDx=0;entryDy=0;fontColor=#0A0A0A;startArrow=none;" parent="1" source="8MdKcx37M3TQIIV3EagU-22" target="2ecnJPpk0YEC4RH_o7Lj-14" edge="1">
          <mxGeometry relative="1" as="geometry">
            <Array as="points">
              <mxPoint x="220" y="685" />
            </Array>
          </mxGeometry>
        </mxCell>
        <mxCell id="8MdKcx37M3TQIIV3EagU-22" value="have" style="shape=rhombus;perimeter=rhombusPerimeter;whiteSpace=wrap;html=1;align=center;rounded=0;sketch=0;fontSize=14;" parent="1" vertex="1">
          <mxGeometry x="180" y="660" width="105" height="50" as="geometry" />
        </mxCell>
        <mxCell id="2ecnJPpk0YEC4RH_o7Lj-145" value="" style="edgeStyle=orthogonalEdgeStyle;rounded=0;orthogonalLoop=1;jettySize=auto;html=1;exitX=0;exitY=0.5;exitDx=0;exitDy=0;entryX=0.5;entryY=1;entryDx=0;entryDy=0;fontColor=#0A0A0A;endArrow=none;" parent="1" source="_zSrM_tOOz1Z_hss7G8G-2" target="8MdKcx37M3TQIIV3EagU-22" edge="1">
          <mxGeometry relative="1" as="geometry">
            <mxPoint x="405" y="705" as="sourcePoint" />
            <mxPoint x="220" y="510" as="targetPoint" />
            <Array as="points">
              <mxPoint x="220" y="705" />
            </Array>
          </mxGeometry>
        </mxCell>
        <mxCell id="2ecnJPpk0YEC4RH_o7Lj-146" style="edgeStyle=orthogonalEdgeStyle;rounded=0;orthogonalLoop=1;jettySize=auto;html=1;entryX=1;entryY=0.5;entryDx=0;entryDy=0;fontColor=#0A0A0A;" parent="1" source="2ecnJPpk0YEC4RH_o7Lj-52" target="2ecnJPpk0YEC4RH_o7Lj-115" edge="1">
          <mxGeometry relative="1" as="geometry">
            <Array as="points">
              <mxPoint x="1080" y="430" />
              <mxPoint x="1080" y="435" />
            </Array>
          </mxGeometry>
        </mxCell>
        <mxCell id="2ecnJPpk0YEC4RH_o7Lj-149" value="Return" style="shape=table;startSize=40;container=1;collapsible=1;childLayout=tableLayout;fixedRows=1;rowLines=0;fontStyle=1;align=center;resizeLast=1;fillColor=#bac8d3;strokeColor=#23445d;" parent="1" vertex="1">
          <mxGeometry x="415" y="270" width="180" height="200" as="geometry" />
        </mxCell>
        <mxCell id="2ecnJPpk0YEC4RH_o7Lj-150" value="" style="shape=partialRectangle;collapsible=0;dropTarget=0;pointerEvents=0;fillColor=none;top=0;left=0;bottom=1;right=0;points=[[0,0.5],[1,0.5]];portConstraint=eastwest;fontColor=#0A0A0A;" parent="2ecnJPpk0YEC4RH_o7Lj-149" vertex="1">
          <mxGeometry y="40" width="180" height="30" as="geometry" />
        </mxCell>
        <mxCell id="2ecnJPpk0YEC4RH_o7Lj-151" value="PK" style="shape=partialRectangle;connectable=0;fillColor=none;top=0;left=0;bottom=0;right=0;fontStyle=1;overflow=hidden;fontColor=#0A0A0A;" parent="2ecnJPpk0YEC4RH_o7Lj-150" vertex="1">
          <mxGeometry width="30" height="30" as="geometry">
            <mxRectangle width="30" height="30" as="alternateBounds" />
          </mxGeometry>
        </mxCell>
        <mxCell id="2ecnJPpk0YEC4RH_o7Lj-152" value="return_id" style="shape=partialRectangle;connectable=0;fillColor=none;top=0;left=0;bottom=0;right=0;align=left;spacingLeft=6;fontStyle=5;overflow=hidden;fontColor=#0A0A0A;" parent="2ecnJPpk0YEC4RH_o7Lj-150" vertex="1">
          <mxGeometry x="30" width="150" height="30" as="geometry">
            <mxRectangle width="150" height="30" as="alternateBounds" />
          </mxGeometry>
        </mxCell>
        <mxCell id="2ecnJPpk0YEC4RH_o7Lj-153" value="" style="shape=partialRectangle;collapsible=0;dropTarget=0;pointerEvents=0;fillColor=none;top=0;left=0;bottom=0;right=0;points=[[0,0.5],[1,0.5]];portConstraint=eastwest;fontColor=#0A0A0A;" parent="2ecnJPpk0YEC4RH_o7Lj-149" vertex="1">
          <mxGeometry y="70" width="180" height="40" as="geometry" />
        </mxCell>
        <mxCell id="2ecnJPpk0YEC4RH_o7Lj-154" value="" style="shape=partialRectangle;connectable=0;fillColor=none;top=0;left=0;bottom=0;right=0;editable=1;overflow=hidden;fontColor=#0A0A0A;" parent="2ecnJPpk0YEC4RH_o7Lj-153" vertex="1">
          <mxGeometry width="30" height="40" as="geometry">
            <mxRectangle width="30" height="40" as="alternateBounds" />
          </mxGeometry>
        </mxCell>
        <mxCell id="2ecnJPpk0YEC4RH_o7Lj-155" value="order_id" style="shape=partialRectangle;connectable=0;fillColor=none;top=0;left=0;bottom=0;right=0;align=left;spacingLeft=6;overflow=hidden;fontColor=#0A0A0A;" parent="2ecnJPpk0YEC4RH_o7Lj-153" vertex="1">
          <mxGeometry x="30" width="150" height="40" as="geometry">
            <mxRectangle width="150" height="40" as="alternateBounds" />
          </mxGeometry>
        </mxCell>
        <mxCell id="2ecnJPpk0YEC4RH_o7Lj-156" value="" style="shape=partialRectangle;collapsible=0;dropTarget=0;pointerEvents=0;fillColor=none;top=0;left=0;bottom=0;right=0;points=[[0,0.5],[1,0.5]];portConstraint=eastwest;fontColor=#0A0A0A;" parent="2ecnJPpk0YEC4RH_o7Lj-149" vertex="1">
          <mxGeometry y="110" width="180" height="30" as="geometry" />
        </mxCell>
        <mxCell id="2ecnJPpk0YEC4RH_o7Lj-157" value="" style="shape=partialRectangle;connectable=0;fillColor=none;top=0;left=0;bottom=0;right=0;editable=1;overflow=hidden;fontColor=#0A0A0A;" parent="2ecnJPpk0YEC4RH_o7Lj-156" vertex="1">
          <mxGeometry width="30" height="30" as="geometry">
            <mxRectangle width="30" height="30" as="alternateBounds" />
          </mxGeometry>
        </mxCell>
        <mxCell id="2ecnJPpk0YEC4RH_o7Lj-158" value="bill_id" style="shape=partialRectangle;connectable=0;fillColor=none;top=0;left=0;bottom=0;right=0;align=left;spacingLeft=6;overflow=hidden;fontColor=#0A0A0A;" parent="2ecnJPpk0YEC4RH_o7Lj-156" vertex="1">
          <mxGeometry x="30" width="150" height="30" as="geometry">
            <mxRectangle width="150" height="30" as="alternateBounds" />
          </mxGeometry>
        </mxCell>
        <mxCell id="2ecnJPpk0YEC4RH_o7Lj-159" value="" style="shape=partialRectangle;collapsible=0;dropTarget=0;pointerEvents=0;fillColor=none;top=0;left=0;bottom=0;right=0;points=[[0,0.5],[1,0.5]];portConstraint=eastwest;fontColor=#0A0A0A;" parent="2ecnJPpk0YEC4RH_o7Lj-149" vertex="1">
          <mxGeometry y="140" width="180" height="30" as="geometry" />
        </mxCell>
        <mxCell id="2ecnJPpk0YEC4RH_o7Lj-160" value="" style="shape=partialRectangle;connectable=0;fillColor=none;top=0;left=0;bottom=0;right=0;editable=1;overflow=hidden;fontColor=#0A0A0A;" parent="2ecnJPpk0YEC4RH_o7Lj-159" vertex="1">
          <mxGeometry width="30" height="30" as="geometry">
            <mxRectangle width="30" height="30" as="alternateBounds" />
          </mxGeometry>
        </mxCell>
        <mxCell id="2ecnJPpk0YEC4RH_o7Lj-161" value="delivery date" style="shape=partialRectangle;connectable=0;fillColor=none;top=0;left=0;bottom=0;right=0;align=left;spacingLeft=6;overflow=hidden;fontColor=#0A0A0A;" parent="2ecnJPpk0YEC4RH_o7Lj-159" vertex="1">
          <mxGeometry x="30" width="150" height="30" as="geometry">
            <mxRectangle width="150" height="30" as="alternateBounds" />
          </mxGeometry>
        </mxCell>
        <mxCell id="2ecnJPpk0YEC4RH_o7Lj-162" value="" style="endArrow=none;html=1;rounded=0;fontColor=#0A0A0A;entryX=0.229;entryY=1.027;entryDx=0;entryDy=0;entryPerimeter=0;exitX=1;exitY=0.5;exitDx=0;exitDy=0;startArrow=none;" parent="1" source="2ecnJPpk0YEC4RH_o7Lj-170" target="C-vyLk0tnHw3VtMMgP7b-27" edge="1">
          <mxGeometry relative="1" as="geometry">
            <mxPoint x="650" y="580" as="sourcePoint" />
            <mxPoint x="810" y="580" as="targetPoint" />
          </mxGeometry>
        </mxCell>
        <mxCell id="2ecnJPpk0YEC4RH_o7Lj-163" value="" style="endArrow=none;html=1;rounded=0;fontColor=#0A0A0A;exitX=0.99;exitY=1;exitDx=0;exitDy=0;exitPerimeter=0;entryX=0;entryY=0;entryDx=0;entryDy=0;" parent="1" source="C-vyLk0tnHw3VtMMgP7b-9" target="2ecnJPpk0YEC4RH_o7Lj-149" edge="1">
          <mxGeometry relative="1" as="geometry">
            <mxPoint x="650" y="580" as="sourcePoint" />
            <mxPoint x="810" y="580" as="targetPoint" />
          </mxGeometry>
        </mxCell>
        <mxCell id="2ecnJPpk0YEC4RH_o7Lj-166" style="edgeStyle=none;rounded=0;orthogonalLoop=1;jettySize=auto;html=1;fontColor=#0A0A0A;startArrow=none;exitX=1;exitY=-0.025;exitDx=0;exitDy=0;exitPerimeter=0;" parent="1" source="_zSrM_tOOz1Z_hss7G8G-29" target="C-vyLk0tnHw3VtMMgP7b-27" edge="1">
          <mxGeometry relative="1" as="geometry">
            <mxPoint x="1105" y="610" as="sourcePoint" />
            <Array as="points">
              <mxPoint x="1100" y="1034" />
              <mxPoint x="1100" y="160" />
            </Array>
          </mxGeometry>
        </mxCell>
        <mxCell id="2ecnJPpk0YEC4RH_o7Lj-167" value="receives" style="shape=rhombus;perimeter=rhombusPerimeter;whiteSpace=wrap;html=1;align=center;fontColor=#0A0A0A;" parent="1" vertex="1">
          <mxGeometry x="1045" y="615" width="120" height="60" as="geometry" />
        </mxCell>
        <mxCell id="2ecnJPpk0YEC4RH_o7Lj-170" value="returns" style="shape=rhombus;perimeter=rhombusPerimeter;whiteSpace=wrap;html=1;align=center;fontColor=#0A0A0A;" parent="1" vertex="1">
          <mxGeometry x="680" y="230" width="120" height="60" as="geometry" />
        </mxCell>
        <mxCell id="2ecnJPpk0YEC4RH_o7Lj-171" value="" style="endArrow=none;html=1;rounded=0;fontColor=#0A0A0A;exitX=1;exitY=0;exitDx=0;exitDy=0;entryX=0;entryY=0.5;entryDx=0;entryDy=0;" parent="1" source="2ecnJPpk0YEC4RH_o7Lj-149" target="2ecnJPpk0YEC4RH_o7Lj-170" edge="1">
          <mxGeometry relative="1" as="geometry">
            <mxPoint x="595" y="270" as="sourcePoint" />
            <mxPoint x="670" y="260" as="targetPoint" />
          </mxGeometry>
        </mxCell>
      </root>
    </mxGraphModel>
  </diagram>
</mxfile>
